<svg width="198" height="148" viewBox="0 0 198 148" fill="none" xmlns="http://www.w3.org/2000/svg">
<path d="M101.935 148H62.8031C62.2503 148 61.8025 147.552 61.8025 146.999V130.679C61.8025 130.126 62.2503 129.679 62.8031 129.679H101.935C102.488 129.679 102.936 130.126 102.936 130.679V146.999C102.936 147.552 102.488 148 101.935 148Z" fill="#407BFF"/>
<path opacity="0.6" d="M101.935 148H62.8031C62.2503 148 61.8025 147.552 61.8025 146.999V130.679C61.8025 130.126 62.2503 129.679 62.8031 129.679H101.935C102.488 129.679 102.936 130.126 102.936 130.679V146.999C102.936 147.552 102.488 148 101.935 148Z" fill="white"/>
<path opacity="0.1" d="M101.933 129.679H62.8045C62.2484 129.679 61.8044 130.128 61.8044 130.679V135.915L82.1789 139.922C82.3038 139.949 82.4332 139.949 82.5582 139.922L102.937 135.915V130.679C102.937 130.128 102.489 129.679 101.933 129.679Z" fill="black"/>
<path d="M102.785 122.98H90.8343V120.975C90.8343 119.251 89.4314 117.848 87.7081 117.848H77.0308C75.3068 117.848 73.9045 119.25 73.9045 120.975V122.98H61.953C61.4078 122.98 60.9664 123.422 60.9664 123.967V133.837C60.9664 134.309 61.3002 134.714 61.7627 134.805L82.1795 138.821C82.305 138.845 82.4344 138.845 82.56 138.821L102.977 134.805C103.439 134.714 103.773 134.309 103.773 133.837V123.967C103.772 123.422 103.33 122.98 102.785 122.98ZM76.2787 120.975C76.2787 120.567 76.6227 120.222 77.0301 120.222H87.7074C88.1149 120.222 88.4589 120.567 88.4589 120.975V122.98H76.2787V120.975Z" fill="#407BFF"/>
<path opacity="0.6" d="M102.785 122.98H90.8343V120.975C90.8343 119.251 89.4314 117.848 87.7081 117.848H77.0308C75.3068 117.848 73.9045 119.25 73.9045 120.975V122.98H61.953C61.4078 122.98 60.9664 123.422 60.9664 123.967V133.837C60.9664 134.309 61.3002 134.714 61.7627 134.805L82.1795 138.821C82.305 138.845 82.4344 138.845 82.56 138.821L102.977 134.805C103.439 134.714 103.773 134.309 103.773 133.837V123.967C103.772 123.422 103.33 122.98 102.785 122.98ZM76.2787 120.975C76.2787 120.567 76.6227 120.222 77.0301 120.222H87.7074C88.1149 120.222 88.4589 120.567 88.4589 120.975V122.98H76.2787V120.975Z" fill="white"/>
<path d="M84.4806 140.688H80.2608C79.7406 140.688 79.3146 140.263 79.3146 139.742V137.075C79.3146 136.555 79.7406 136.129 80.2608 136.129H84.4806C85.0008 136.129 85.4268 136.554 85.4268 137.075V139.742C85.4268 140.263 85.0008 140.688 84.4806 140.688Z" fill="#407BFF"/>
<path opacity="0.3" d="M84.4806 140.688H80.2608C79.7406 140.688 79.3146 140.263 79.3146 139.742V137.075C79.3146 136.555 79.7406 136.129 80.2608 136.129H84.4806C85.0008 136.129 85.4268 136.554 85.4268 137.075V139.742C85.4268 140.263 85.0008 140.688 84.4806 140.688Z" fill="white"/>
<path d="M101.935 30.1517H62.8031C62.2503 30.1517 61.8025 29.7039 61.8025 29.1511V12.8311C61.8025 12.2782 62.2503 11.8304 62.8031 11.8304H101.935C102.488 11.8304 102.936 12.2782 102.936 12.8311V29.1511C102.936 29.7039 102.488 30.1517 101.935 30.1517Z" fill="#407BFF"/>
<path opacity="0.6" d="M101.935 30.1517H62.8031C62.2503 30.1517 61.8025 29.7039 61.8025 29.1511V12.8311C61.8025 12.2782 62.2503 11.8304 62.8031 11.8304H101.935C102.488 11.8304 102.936 12.2782 102.936 12.8311V29.1511C102.936 29.7039 102.488 30.1517 101.935 30.1517Z" fill="white"/>
<path opacity="0.1" d="M101.933 11.8311H62.8045C62.2484 11.8311 61.8044 12.2795 61.8044 12.8305V18.0663L82.1789 22.0741C82.3038 22.1003 82.4332 22.1003 82.5582 22.0741L102.937 18.0663V12.8305C102.937 12.2795 102.489 11.8311 101.933 11.8311Z" fill="black"/>
<path d="M102.785 5.13205H90.8343V3.12626C90.8343 1.40233 89.4314 0 87.7081 0H77.0308C75.3068 0 73.9045 1.40233 73.9045 3.12626V5.13205H61.953C61.4078 5.13205 60.9664 5.57409 60.9664 6.11862V15.9887C60.9664 16.4602 61.3002 16.8658 61.7627 16.9567L82.1795 20.9728C82.305 20.9972 82.4344 20.9972 82.56 20.9728L102.977 16.9567C103.439 16.8658 103.773 16.4602 103.773 15.9887V6.11862C103.772 5.57409 103.33 5.13205 102.785 5.13205ZM76.2787 3.12626C76.2787 2.71882 76.6227 2.37416 77.0301 2.37416H87.7074C88.1149 2.37416 88.4589 2.71882 88.4589 3.12626V5.13205H76.2787V3.12626Z" fill="#407BFF"/>
<path opacity="0.6" d="M102.785 5.13205H90.8343V3.12626C90.8343 1.40233 89.4314 0 87.7081 0H77.0308C75.3068 0 73.9045 1.40233 73.9045 3.12626V5.13205H61.953C61.4078 5.13205 60.9664 5.57409 60.9664 6.11862V15.9887C60.9664 16.4602 61.3002 16.8658 61.7627 16.9567L82.1795 20.9728C82.305 20.9972 82.4344 20.9972 82.56 20.9728L102.977 16.9567C103.439 16.8658 103.773 16.4602 103.773 15.9887V6.11862C103.772 5.57409 103.33 5.13205 102.785 5.13205ZM76.2787 3.12626C76.2787 2.71882 76.6227 2.37416 77.0301 2.37416H87.7074C88.1149 2.37416 88.4589 2.71882 88.4589 3.12626V5.13205H76.2787V3.12626Z" fill="white"/>
<path d="M84.4806 22.8396H80.2608C79.7406 22.8396 79.3146 22.4136 79.3146 21.8934V19.2265C79.3146 18.7063 79.7406 18.2803 80.2608 18.2803H84.4806C85.0008 18.2803 85.4268 18.7056 85.4268 19.2265V21.8934C85.4268 22.4142 85.0008 22.8396 84.4806 22.8396Z" fill="#407BFF"/>
<path opacity="0.3" d="M84.4806 22.8396H80.2608C79.7406 22.8396 79.3146 22.4136 79.3146 21.8934V19.2265C79.3146 18.7063 79.7406 18.2803 80.2608 18.2803H84.4806C85.0008 18.2803 85.4268 18.7056 85.4268 19.2265V21.8934C85.4268 22.4142 85.0008 22.8396 84.4806 22.8396Z" fill="white"/>
<path d="M40.9693 148H1.83733C1.28447 148 0.83667 147.552 0.83667 146.999V130.679C0.83667 130.126 1.28447 129.679 1.83733 129.679H40.9693C41.5222 129.679 41.97 130.126 41.97 130.679V146.999C41.97 147.552 41.5222 148 40.9693 148Z" fill="#407BFF"/>
<path opacity="0.6" d="M40.9693 148H1.83733C1.28447 148 0.83667 147.552 0.83667 146.999V130.679C0.83667 130.126 1.28447 129.679 1.83733 129.679H40.9693C41.5222 129.679 41.97 130.126 41.97 130.679V146.999C41.97 147.552 41.5222 148 40.9693 148Z" fill="white"/>
<path opacity="0.1" d="M40.9673 129.679H1.83852C1.28246 129.679 0.838501 130.128 0.838501 130.679V135.915L21.213 139.922C21.3379 139.949 21.4673 139.949 21.5922 139.922L41.9712 135.915V130.679C41.9712 130.128 41.5234 129.679 40.9673 129.679Z" fill="black"/>
<path d="M41.82 122.98H29.8685V120.975C29.8685 119.251 28.4662 117.848 26.7423 117.848H16.065C14.3417 117.848 12.9387 119.25 12.9387 120.975V122.98H0.987175C0.442002 122.98 0.000610352 123.422 0.000610352 123.967V133.837C0.000610352 134.309 0.334379 134.714 0.796911 134.805L21.213 138.821C21.3392 138.845 21.468 138.845 21.5942 138.821L42.0103 134.805C42.4728 134.714 42.8066 134.309 42.8066 133.837V123.967C42.8066 123.422 42.3646 122.98 41.82 122.98ZM15.3135 120.975C15.3135 120.567 15.6575 120.222 16.065 120.222H26.7423C27.1497 120.222 27.4937 120.567 27.4937 120.975V122.98H15.3135V120.975Z" fill="#407BFF"/>
<path opacity="0.6" d="M41.82 122.98H29.8685V120.975C29.8685 119.251 28.4662 117.848 26.7423 117.848H16.065C14.3417 117.848 12.9387 119.25 12.9387 120.975V122.98H0.987175C0.442002 122.98 0.000610352 123.422 0.000610352 123.967V133.837C0.000610352 134.309 0.334379 134.714 0.796911 134.805L21.213 138.821C21.3392 138.845 21.468 138.845 21.5942 138.821L42.0103 134.805C42.4728 134.714 42.8066 134.309 42.8066 133.837V123.967C42.8066 123.422 42.3646 122.98 41.82 122.98ZM15.3135 120.975C15.3135 120.567 15.6575 120.222 16.065 120.222H26.7423C27.1497 120.222 27.4937 120.567 27.4937 120.975V122.98H15.3135V120.975Z" fill="white"/>
<path d="M23.5148 140.688H19.295C18.7748 140.688 18.3488 140.263 18.3488 139.742V137.075C18.3488 136.555 18.7748 136.129 19.295 136.129H23.5148C24.035 136.129 24.461 136.554 24.461 137.075V139.742C24.461 140.263 24.0356 140.688 23.5148 140.688Z" fill="#407BFF"/>
<path opacity="0.3" d="M23.5148 140.688H19.295C18.7748 140.688 18.3488 140.263 18.3488 139.742V137.075C18.3488 136.555 18.7748 136.129 19.295 136.129H23.5148C24.035 136.129 24.461 136.554 24.461 137.075V139.742C24.461 140.263 24.0356 140.688 23.5148 140.688Z" fill="white"/>
<path d="M40.9693 30.1517H1.83733C1.28447 30.1517 0.83667 29.7039 0.83667 29.1511V12.8311C0.83667 12.2782 1.28447 11.8304 1.83733 11.8304H40.9693C41.5222 11.8304 41.97 12.2782 41.97 12.8311V29.1511C41.97 29.7039 41.5222 30.1517 40.9693 30.1517Z" fill="#407BFF"/>
<path opacity="0.6" d="M40.9693 30.1517H1.83733C1.28447 30.1517 0.83667 29.7039 0.83667 29.1511V12.8311C0.83667 12.2782 1.28447 11.8304 1.83733 11.8304H40.9693C41.5222 11.8304 41.97 12.2782 41.97 12.8311V29.1511C41.97 29.7039 41.5222 30.1517 40.9693 30.1517Z" fill="white"/>
<path opacity="0.1" d="M40.9673 11.8311H1.83852C1.28246 11.8311 0.838501 12.2795 0.838501 12.8305V18.0663L21.213 22.0741C21.3379 22.1003 21.4673 22.1003 21.5922 22.0741L41.9712 18.0663V12.8305C41.9712 12.2795 41.5234 11.8311 40.9673 11.8311Z" fill="black"/>
<path d="M41.8202 5.13205H29.8686V3.12626C29.8686 1.40233 28.4663 0 26.7424 0H16.0651C14.3418 0 12.9388 1.40233 12.9388 3.12626V5.13205H0.987297C0.442124 5.13205 0.000732422 5.57409 0.000732422 6.11862V15.9887C0.000732422 16.4602 0.334501 16.8658 0.797033 16.9567L21.2131 20.9728C21.3393 20.9972 21.4681 20.9972 21.5943 20.9728L42.0104 16.9567C42.473 16.8658 42.8067 16.4602 42.8067 15.9887V6.11862C42.8067 5.57409 42.3647 5.13205 41.8202 5.13205ZM15.3136 3.12626C15.3136 2.71882 15.6576 2.37416 16.0651 2.37416H26.7424C27.1498 2.37416 27.4938 2.71882 27.4938 3.12626V5.13205H15.3136V3.12626Z" fill="#407BFF"/>
<path opacity="0.6" d="M41.8202 5.13205H29.8686V3.12626C29.8686 1.40233 28.4663 0 26.7424 0H16.0651C14.3418 0 12.9388 1.40233 12.9388 3.12626V5.13205H0.987297C0.442124 5.13205 0.000732422 5.57409 0.000732422 6.11862V15.9887C0.000732422 16.4602 0.334501 16.8658 0.797033 16.9567L21.2131 20.9728C21.3393 20.9972 21.4681 20.9972 21.5943 20.9728L42.0104 16.9567C42.473 16.8658 42.8067 16.4602 42.8067 15.9887V6.11862C42.8067 5.57409 42.3647 5.13205 41.8202 5.13205ZM15.3136 3.12626C15.3136 2.71882 15.6576 2.37416 16.0651 2.37416H26.7424C27.1498 2.37416 27.4938 2.71882 27.4938 3.12626V5.13205H15.3136V3.12626Z" fill="white"/>
<path d="M23.5148 22.8396H19.295C18.7748 22.8396 18.3488 22.4136 18.3488 21.8934V19.2265C18.3488 18.7063 18.7748 18.2803 19.295 18.2803H23.5148C24.035 18.2803 24.461 18.7056 24.461 19.2265V21.8934C24.461 22.4142 24.0356 22.8396 23.5148 22.8396Z" fill="#407BFF"/>
<path opacity="0.3" d="M23.5148 22.8396H19.295C18.7748 22.8396 18.3488 22.4136 18.3488 21.8934V19.2265C18.3488 18.7063 18.7748 18.2803 19.295 18.2803H23.5148C24.035 18.2803 24.461 18.7056 24.461 19.2265V21.8934C24.461 22.4142 24.0356 22.8396 23.5148 22.8396Z" fill="white"/>
<path d="M35.8475 89.0771H1.8354C1.28703 89.0771 0.834106 88.63 0.834106 88.0758V71.7584C0.834106 71.6213 0.864214 71.4843 0.917386 71.3651C0.941089 71.3055 0.971199 71.2517 1.00643 71.1985C1.04231 71.1447 1.08395 71.0973 1.13135 71.0493C1.31009 70.8705 1.56058 70.7571 1.84053 70.7571H34.0531C33.7911 72.9622 33.6957 75.2153 33.7911 77.4978C33.8033 77.861 33.8206 78.2249 33.8507 78.5888C33.8923 79.2563 33.9461 79.9354 34.0237 80.6093C34.3517 83.5408 34.9718 86.3718 35.8475 89.0771Z" fill="#407BFF"/>
<path opacity="0.6" d="M35.8475 89.0771H1.8354C1.28703 89.0771 0.834106 88.63 0.834106 88.0758V71.7584C0.834106 71.6213 0.864214 71.4843 0.917386 71.3651C0.941089 71.3055 0.971199 71.2517 1.00643 71.1985C1.04231 71.1447 1.08395 71.0973 1.13135 71.0493C1.31009 70.8705 1.56058 70.7571 1.84053 70.7571H34.0531C33.7911 72.9622 33.6957 75.2153 33.7911 77.4978C33.8033 77.861 33.8206 78.2249 33.8507 78.5888C33.8923 79.2563 33.9461 79.9354 34.0237 80.6093C34.3517 83.5408 34.9718 86.3718 35.8475 89.0771Z" fill="white"/>
<path opacity="0.1" d="M34.0537 70.7571C33.7917 72.9622 33.6962 75.2153 33.7917 77.4978C33.8039 77.861 33.8212 78.2249 33.8513 78.5888L24.4584 80.43L21.5916 80.9963C21.4667 81.0257 21.3354 81.0257 21.2104 80.9963L18.35 80.4357L0.840454 76.9911V71.7527C0.840454 71.6156 0.870565 71.4849 0.917971 71.3651C0.941674 71.3055 0.971784 71.2517 1.00702 71.1985C1.04289 71.1447 1.08453 71.0973 1.13194 71.0493C1.31067 70.8705 1.56116 70.7571 1.84111 70.7571H34.0537Z" fill="black"/>
<path d="M35.3946 64.0581H29.8698V62.0498C29.8698 60.3271 28.463 58.9267 26.741 58.9267H16.0669C14.3385 58.9267 12.9381 60.3271 12.9381 62.0498V64.0581H0.989126C0.44075 64.0581 0 64.4995 0 65.0415V74.911C0 75.3818 0.333767 75.7867 0.798862 75.8822L0.834737 75.8879H0.840499L18.3501 79.339L21.2105 79.8989C21.3418 79.9226 21.4667 79.9226 21.5917 79.8989L24.4585 79.3332L33.7917 77.4978C33.6963 75.2153 33.7917 72.9628 34.0538 70.7572C34.3222 68.4688 34.7751 66.2337 35.3946 64.0581ZM15.3103 62.0498C15.3103 61.6442 15.6563 61.2989 16.0675 61.2989H26.7417C27.1529 61.2989 27.4925 61.6449 27.4925 62.0498V64.0581H15.311L15.3103 62.0498Z" fill="#407BFF"/>
<path opacity="0.6" d="M35.3946 64.0581H29.8698V62.0498C29.8698 60.3271 28.463 58.9267 26.741 58.9267H16.0669C14.3385 58.9267 12.9381 60.3271 12.9381 62.0498V64.0581H0.989126C0.44075 64.0581 0 64.4995 0 65.0415V74.911C0 75.3818 0.333767 75.7867 0.798862 75.8822L0.834737 75.8879H0.840499L18.3501 79.339L21.2105 79.8989C21.3418 79.9226 21.4667 79.9226 21.5917 79.8989L24.4585 79.3332L33.7917 77.4978C33.6963 75.2153 33.7917 72.9628 34.0538 70.7572C34.3222 68.4688 34.7751 66.2337 35.3946 64.0581ZM15.3103 62.0498C15.3103 61.6442 15.6563 61.2989 16.0675 61.2989H26.7417C27.1529 61.2989 27.4925 61.6449 27.4925 62.0498V64.0581H15.311L15.3103 62.0498Z" fill="white"/>
<path d="M23.5148 81.7637H19.295C18.7748 81.7637 18.3488 81.3384 18.3488 80.8175V78.1506C18.3488 77.6304 18.7748 77.2044 19.295 77.2044H23.5148C24.035 77.2044 24.461 77.6304 24.461 78.1506V80.8175C24.461 81.3384 24.0356 81.7637 23.5148 81.7637Z" fill="#407BFF"/>
<path opacity="0.3" d="M23.5148 81.7637H19.295C18.7748 81.7637 18.3488 81.3384 18.3488 80.8175V78.1506C18.3488 77.6304 18.7748 77.2044 19.295 77.2044H23.5148C24.035 77.2044 24.461 77.6304 24.461 78.1506V80.8175C24.461 81.3384 24.0356 81.7637 23.5148 81.7637Z" fill="white"/>
<path d="M123.768 148H162.9C163.453 148 163.901 147.552 163.901 146.999V130.679C163.901 130.126 163.453 129.679 162.9 129.679H123.768C123.216 129.679 122.768 130.126 122.768 130.679V146.999C122.768 147.552 123.216 148 123.768 148Z" fill="#407BFF"/>
<path opacity="0.6" d="M123.768 148H162.9C163.453 148 163.901 147.552 163.901 146.999V130.679C163.901 130.126 163.453 129.679 162.9 129.679H123.768C123.216 129.679 122.768 130.126 122.768 130.679V146.999C122.768 147.552 123.216 148 123.768 148Z" fill="white"/>
<path opacity="0.1" d="M123.771 129.679H162.9C163.456 129.679 163.9 130.128 163.9 130.679V135.915L143.525 139.922C143.4 139.949 143.271 139.949 143.146 139.922L122.767 135.915V130.679C122.766 130.128 123.215 129.679 123.771 129.679Z" fill="black"/>
<path d="M122.918 122.98H134.87V120.975C134.87 119.251 136.272 117.848 137.996 117.848H148.673C150.397 117.848 151.8 119.25 151.8 120.975V122.98H163.751C164.296 122.98 164.738 123.422 164.738 123.967V133.837C164.738 134.309 164.404 134.714 163.941 134.805L143.525 138.821C143.399 138.845 143.27 138.845 143.144 138.821L122.727 134.805C122.265 134.714 121.931 134.309 121.931 133.837V123.967C121.932 123.422 122.373 122.98 122.918 122.98ZM149.425 120.975C149.425 120.567 149.081 120.222 148.673 120.222H137.996C137.589 120.222 137.245 120.567 137.245 120.975V122.98H149.425V120.975Z" fill="#407BFF"/>
<path opacity="0.6" d="M122.918 122.98H134.87V120.975C134.87 119.251 136.272 117.848 137.996 117.848H148.673C150.397 117.848 151.8 119.25 151.8 120.975V122.98H163.751C164.296 122.98 164.738 123.422 164.738 123.967V133.837C164.738 134.309 164.404 134.714 163.941 134.805L143.525 138.821C143.399 138.845 143.27 138.845 143.144 138.821L122.727 134.805C122.265 134.714 121.931 134.309 121.931 133.837V123.967C121.932 123.422 122.373 122.98 122.918 122.98ZM149.425 120.975C149.425 120.567 149.081 120.222 148.673 120.222H137.996C137.589 120.222 137.245 120.567 137.245 120.975V122.98H149.425V120.975Z" fill="white"/>
<path d="M141.223 140.688H145.443C145.963 140.688 146.389 140.263 146.389 139.742V137.075C146.389 136.555 145.963 136.129 145.443 136.129H141.223C140.703 136.129 140.277 136.554 140.277 137.075V139.742C140.277 140.263 140.703 140.688 141.223 140.688Z" fill="#407BFF"/>
<path opacity="0.3" d="M141.223 140.688H145.443C145.963 140.688 146.389 140.263 146.389 139.742V137.075C146.389 136.555 145.963 136.129 145.443 136.129H141.223C140.703 136.129 140.277 136.554 140.277 137.075V139.742C140.277 140.263 140.703 140.688 141.223 140.688Z" fill="white"/>
<path d="M123.768 30.1517H162.9C163.453 30.1517 163.901 29.7039 163.901 29.1511V12.8311C163.901 12.2782 163.453 11.8304 162.9 11.8304H123.768C123.216 11.8304 122.768 12.2782 122.768 12.8311V29.1511C122.768 29.7039 123.216 30.1517 123.768 30.1517Z" fill="#407BFF"/>
<path opacity="0.6" d="M123.768 30.1517H162.9C163.453 30.1517 163.901 29.7039 163.901 29.1511V12.8311C163.901 12.2782 163.453 11.8304 162.9 11.8304H123.768C123.216 11.8304 122.768 12.2782 122.768 12.8311V29.1511C122.768 29.7039 123.216 30.1517 123.768 30.1517Z" fill="white"/>
<path opacity="0.1" d="M123.771 11.8311H162.9C163.456 11.8311 163.9 12.2795 163.9 12.8305V18.0663L143.525 22.0741C143.4 22.1003 143.271 22.1003 143.146 22.0741L122.767 18.0663V12.8305C122.766 12.2795 123.215 11.8311 123.771 11.8311Z" fill="black"/>
<path d="M122.918 5.13205H134.87V3.12626C134.87 1.40233 136.272 0 137.996 0H148.673C150.397 0 151.8 1.40233 151.8 3.12626V5.13205H163.751C164.296 5.13205 164.738 5.57409 164.738 6.11862V15.9887C164.738 16.4602 164.404 16.8658 163.941 16.9567L143.525 20.9728C143.399 20.9972 143.27 20.9972 143.144 20.9728L122.727 16.9567C122.265 16.8658 121.931 16.4602 121.931 15.9887V6.11862C121.932 5.57409 122.373 5.13205 122.918 5.13205ZM149.425 3.12626C149.425 2.71882 149.081 2.37416 148.673 2.37416H137.996C137.589 2.37416 137.245 2.71882 137.245 3.12626V5.13205H149.425V3.12626Z" fill="#407BFF"/>
<path opacity="0.6" d="M122.918 5.13205H134.87V3.12626C134.87 1.40233 136.272 0 137.996 0H148.673C150.397 0 151.8 1.40233 151.8 3.12626V5.13205H163.751C164.296 5.13205 164.738 5.57409 164.738 6.11862V15.9887C164.738 16.4602 164.404 16.8658 163.941 16.9567L143.525 20.9728C143.399 20.9972 143.27 20.9972 143.144 20.9728L122.727 16.9567C122.265 16.8658 121.931 16.4602 121.931 15.9887V6.11862C121.932 5.57409 122.373 5.13205 122.918 5.13205ZM149.425 3.12626C149.425 2.71882 149.081 2.37416 148.673 2.37416H137.996C137.589 2.37416 137.245 2.71882 137.245 3.12626V5.13205H149.425V3.12626Z" fill="white"/>
<path d="M141.223 22.8396H145.443C145.963 22.8396 146.389 22.4136 146.389 21.8934V19.2265C146.389 18.7063 145.963 18.2803 145.443 18.2803H141.223C140.703 18.2803 140.277 18.7056 140.277 19.2265V21.8934C140.277 22.4142 140.703 22.8396 141.223 22.8396Z" fill="#407BFF"/>
<path opacity="0.3" d="M141.223 22.8396H145.443C145.963 22.8396 146.389 22.4136 146.389 21.8934V19.2265C146.389 18.7063 145.963 18.2803 145.443 18.2803H141.223C140.703 18.2803 140.277 18.7056 140.277 19.2265V21.8934C140.277 22.4142 140.703 22.8396 141.223 22.8396Z" fill="white"/>
<path d="M128.891 89.0771H162.903C163.451 89.0771 163.904 88.63 163.904 88.0758V71.7584C163.904 71.6213 163.874 71.4843 163.821 71.3651C163.797 71.3055 163.767 71.2517 163.732 71.1985C163.696 71.1447 163.654 71.0973 163.607 71.0493C163.428 70.8705 163.178 70.7571 162.898 70.7571H130.685C130.947 72.9622 131.043 75.2153 130.947 77.4978C130.935 77.861 130.917 78.2249 130.888 78.5888C130.846 79.2563 130.792 79.9354 130.715 80.6093C130.387 83.5408 129.766 86.3718 128.891 89.0771Z" fill="#407BFF"/>
<path opacity="0.6" d="M128.891 89.0771H162.903C163.451 89.0771 163.904 88.63 163.904 88.0758V71.7584C163.904 71.6213 163.874 71.4843 163.821 71.3651C163.797 71.3055 163.767 71.2517 163.732 71.1985C163.696 71.1447 163.654 71.0973 163.607 71.0493C163.428 70.8705 163.178 70.7571 162.898 70.7571H130.685C130.947 72.9622 131.043 75.2153 130.947 77.4978C130.935 77.861 130.917 78.2249 130.888 78.5888C130.846 79.2563 130.792 79.9354 130.715 80.6093C130.387 83.5408 129.766 86.3718 128.891 89.0771Z" fill="white"/>
<path opacity="0.1" d="M130.685 70.7571C130.947 72.9622 131.042 75.2153 130.947 77.4978C130.934 77.861 130.916 78.2249 130.887 78.5888L140.279 80.43L143.146 80.9963C143.271 81.0257 143.402 81.0257 143.527 80.9963L146.388 80.4357L163.897 76.9911V71.7527C163.897 71.6156 163.867 71.4849 163.82 71.3651C163.796 71.3055 163.766 71.2517 163.731 71.1985C163.695 71.1447 163.653 71.0973 163.606 71.0493C163.427 70.8705 163.176 70.7571 162.897 70.7571H130.685Z" fill="black"/>
<path d="M129.344 64.0581H134.869V62.0498C134.869 60.3271 136.275 58.9267 137.997 58.9267H148.671C150.4 58.9267 151.8 60.3271 151.8 62.0498V64.0581H163.749C164.298 64.0581 164.738 64.4995 164.738 65.0415V74.911C164.738 75.3818 164.405 75.7867 163.939 75.8822L163.904 75.8879H163.898L146.388 79.339L143.528 79.8989C143.397 79.9226 143.272 79.9226 143.147 79.8989L140.28 79.3332L130.947 77.4978C131.043 75.2153 130.947 72.9628 130.685 70.7572C130.416 68.4688 129.963 66.2337 129.344 64.0581ZM149.428 62.0498C149.428 61.6442 149.082 61.2989 148.671 61.2989H137.997C137.586 61.2989 137.247 61.6449 137.247 62.0498V64.0581H149.428V62.0498Z" fill="#407BFF"/>
<path opacity="0.6" d="M129.344 64.0581H134.869V62.0498C134.869 60.3271 136.275 58.9267 137.997 58.9267H148.671C150.4 58.9267 151.8 60.3271 151.8 62.0498V64.0581H163.749C164.298 64.0581 164.738 64.4995 164.738 65.0415V74.911C164.738 75.3818 164.405 75.7867 163.939 75.8822L163.904 75.8879H163.898L146.388 79.339L143.528 79.8989C143.397 79.9226 143.272 79.9226 143.147 79.8989L140.28 79.3332L130.947 77.4978C131.043 75.2153 130.947 72.9628 130.685 70.7572C130.416 68.4688 129.963 66.2337 129.344 64.0581ZM149.428 62.0498C149.428 61.6442 149.082 61.2989 148.671 61.2989H137.997C137.586 61.2989 137.247 61.6449 137.247 62.0498V64.0581H149.428V62.0498Z" fill="white"/>
<path d="M141.223 81.7637H145.443C145.963 81.7637 146.389 81.3384 146.389 80.8175V78.1506C146.389 77.6304 145.963 77.2044 145.443 77.2044H141.223C140.703 77.2044 140.277 77.6304 140.277 78.1506V80.8175C140.277 81.3384 140.703 81.7637 141.223 81.7637Z" fill="#407BFF"/>
<path opacity="0.3" d="M141.223 81.7637H145.443C145.963 81.7637 146.389 81.3384 146.389 80.8175V78.1506C146.389 77.6304 145.963 77.2044 145.443 77.2044H141.223C140.703 77.2044 140.277 77.6304 140.277 78.1506V80.8175C140.277 81.3384 140.703 81.7637 141.223 81.7637Z" fill="white"/>
<path d="M112.554 93.1054H56.3251C55.5308 93.1054 54.8876 92.4616 54.8876 91.6678V68.2177C54.8876 67.4233 55.5314 66.7802 56.3251 66.7802H112.554C113.348 66.7802 113.992 67.424 113.992 68.2177V91.6678C113.992 92.4616 113.349 93.1054 112.554 93.1054Z" fill="#407BFF"/>
<path d="M92.1105 62.5821H76.7688C74.3491 62.5821 72.3805 60.6135 72.3805 58.1938V54.2719C72.3805 51.8523 74.3485 49.8836 76.7688 49.8836H92.1105C94.5301 49.8836 96.4988 51.8523 96.4988 54.2719V58.1938C96.4988 60.6135 94.5308 62.5821 92.1105 62.5821ZM76.7688 53.0874C76.1153 53.0874 75.5836 53.6191 75.5836 54.2726V58.1945C75.5836 58.8479 76.1153 59.3796 76.7688 59.3796H92.1105C92.7639 59.3796 93.2957 58.8479 93.2957 58.1945V54.2726C93.2957 53.6191 92.7639 53.0874 92.1105 53.0874H76.7688Z" fill="#407BFF"/>
<path opacity="0.2" d="M112.552 66.7808H56.327C55.5282 66.7808 54.8907 67.4246 54.8907 68.2171V75.7406L84.1667 81.4992C84.3461 81.537 84.5319 81.537 84.7119 81.4992L113.994 75.7406V68.2171C113.994 67.4246 113.35 66.7808 112.552 66.7808Z" fill="black"/>
<path d="M114.05 74.1454L84.7138 79.9162C84.5332 79.9514 84.3474 79.9514 84.1668 79.9162L54.8306 74.1454C54.1656 74.0147 53.6864 73.4318 53.6864 72.7546V58.5724C53.6864 57.7896 54.3213 57.1547 55.1041 57.1547H113.777C114.56 57.1547 115.195 57.7896 115.195 58.5724V72.7546C115.194 73.4318 114.714 74.0147 114.05 74.1454Z" fill="#407BFF"/>
<path d="M87.4737 82.5985H81.4102C80.6626 82.5985 80.0508 81.9867 80.0508 81.2391V77.4069C80.0508 76.6592 80.6626 76.0474 81.4102 76.0474H87.4737C88.2213 76.0474 88.8331 76.6592 88.8331 77.4069V81.2391C88.8331 81.9867 88.2213 82.5985 87.4737 82.5985Z" fill="#407BFF"/>
<path opacity="0.4" d="M87.4737 82.5985H81.4102C80.6626 82.5985 80.0508 81.9867 80.0508 81.2391V77.4069C80.0508 76.6592 80.6626 76.0474 81.4102 76.0474H87.4737C88.2213 76.0474 88.8331 76.6592 88.8331 77.4069V81.2391C88.8331 81.9867 88.2213 82.5985 87.4737 82.5985Z" fill="black"/>
<path opacity="0.2" d="M89.3393 120.064C114.658 117.236 132.894 94.4184 130.065 69.0944C127.236 43.7705 104.414 25.5402 79.0957 28.3685C53.7718 31.1975 35.5351 54.0147 38.3634 79.3387C41.1937 104.662 64.016 122.893 89.3393 120.064Z" fill="#DCE7FF"/>
<path opacity="0.1" d="M55.7789 37.8857L125.926 93.936C126.227 93.303 126.51 92.6611 126.784 92.0154C128.519 87.8878 129.658 83.481 130.117 78.8966L130.116 78.8915L69.5274 30.4794C64.4767 32.1675 59.8443 34.6973 55.7789 37.8857Z" fill="white"/>
<path opacity="0.1" d="M39.5947 62.4428L105.545 115.135C111.866 111.842 117.278 107.146 121.414 101.5L49.3969 43.9556C44.803 49.2363 41.4173 55.5509 39.5947 62.4428Z" fill="white"/>
<path d="M197.837 126.024C197.681 124.505 197.249 123.546 196.732 122.758C196.21 121.979 195.569 121.446 194.839 121.088L190.466 118.941C187.555 117.5 184.625 116.098 181.697 114.69C178.774 113.275 175.824 111.913 172.888 110.521C169.935 109.166 166.995 107.783 164.029 106.455C158.111 103.767 152.157 101.153 146.16 98.6254C143.16 97.3633 140.154 96.1167 137.127 94.9104C135.29 94.1852 134.327 92.1627 134.926 90.2812C142.766 65.6402 131.66 38.3027 107.765 26.5075C81.4179 13.5015 49.5141 24.3179 36.5088 50.6649C23.5008 77.0158 34.3172 108.92 60.6636 121.926C84.5576 133.721 113.012 125.913 127.806 104.702C128.936 103.083 131.127 102.618 132.82 103.634L132.82 103.635C135.619 105.304 138.437 106.933 141.263 108.547C146.916 111.77 152.612 114.907 158.345 117.97C161.203 119.517 164.089 121.01 166.961 122.53C169.851 124.014 172.726 125.527 175.627 126.988C178.525 128.456 181.42 129.929 184.334 131.364L188.698 133.531C189.426 133.891 190.24 134.076 191.174 134.016C192.114 133.948 193.138 133.707 194.438 132.908C196.719 131.5 198.129 128.869 197.837 126.024ZM65.6316 111.863C44.8395 101.599 36.3095 76.4251 46.573 55.6329C56.8345 34.8459 82.006 26.3083 102.798 36.5718C123.59 46.8352 132.12 72.0093 121.859 92.7969C111.596 113.588 86.4238 122.126 65.6316 111.863Z" fill="#DCE7FF"/>
</svg>
