<svg width="226" height="226" viewBox="0 0 226 226" fill="none" xmlns="http://www.w3.org/2000/svg">
<path d="M203.355 180.119H188.384V180.232H203.355V180.119Z" fill="#EBEBEB"/>
<path d="M149.711 181.346H145.782V181.459H149.711V181.346Z" fill="#EBEBEB"/>
<path d="M187.932 175.922H179.257V176.035H187.932V175.922Z" fill="#EBEBEB"/>
<path d="M43.2347 176.681H23.7114V176.794H43.2347V176.681Z" fill="#EBEBEB"/>
<path d="M50.1218 176.681H47.2593V176.794H50.1218V176.681Z" fill="#EBEBEB"/>
<path d="M101.766 178.59H59.4248V178.703H101.766V178.59Z" fill="#EBEBEB"/>
<path d="M226 172.844H0V172.957H226V172.844Z" fill="#EBEBEB"/>
<path d="M110.82 191.519C159.221 191.519 198.458 189.227 198.458 186.401C198.458 183.574 159.221 181.283 110.82 181.283C62.4194 181.283 23.1826 183.574 23.1826 186.401C23.1826 189.227 62.4194 191.519 110.82 191.519Z" fill="#F5F5F5"/>
<path d="M126.478 184.016L134.939 175.555L143.4 184.016C143.618 184.234 143.914 184.356 144.222 184.356C145.258 184.356 145.777 183.104 145.044 182.372L134.939 172.267L124.834 182.372C124.102 183.104 124.62 184.356 125.656 184.356C125.964 184.356 126.26 184.234 126.478 184.016Z" fill="#407BFF"/>
<path opacity="0.2" d="M135.225 172.554H134.652L132.06 175.146V178.312H132.182L134.939 175.555L137.696 178.312H137.818V175.146L135.225 172.554Z" fill="black"/>
<path d="M135.314 184.356H134.564C133.815 184.356 133.208 183.749 133.208 183V154.454H136.67V183C136.67 183.75 136.063 184.356 135.314 184.356Z" fill="#407BFF"/>
<path opacity="0.2" d="M136.67 154.454H133.208V156.553H136.67V154.454Z" fill="black"/>
<path d="M196.564 155.229H73.3149C70.7837 155.229 68.7244 153.17 68.7244 150.639V50.6556H201.154V150.639C201.154 153.171 199.095 155.229 196.564 155.229ZM70.2747 52.206V150.639C70.2747 152.315 71.6389 153.68 73.3149 153.68H196.564C198.24 153.68 199.604 152.315 199.604 150.639V52.206H70.2747Z" fill="#407BFF"/>
<g opacity="0.8">
<path d="M196.564 155.229H73.3149C70.7837 155.229 68.7244 153.17 68.7244 150.639V50.6556H201.154V150.639C201.154 153.171 199.095 155.229 196.564 155.229ZM70.2747 52.206V150.639C70.2747 152.315 71.6389 153.68 73.3149 153.68H196.564C198.24 153.68 199.604 152.315 199.604 150.639V52.206H70.2747Z" fill="white"/>
</g>
<g opacity="0.8">
<path d="M70.2747 52.206V150.639C70.2747 152.315 71.6388 153.68 73.3148 153.68H196.563C198.24 153.68 199.604 152.315 199.604 150.639V52.206H70.2747Z" fill="white"/>
</g>
<path d="M204.145 49.687H65.7334V53.1746H204.145V49.687Z" fill="#407BFF"/>
<path opacity="0.5" d="M204.145 49.687H65.7334V53.1746H204.145V49.687Z" fill="white"/>
<path opacity="0.5" d="M204.145 49.687H65.7334V51.4308H204.145V49.687Z" fill="white"/>
<path d="M156.936 133.153V132.494H151.86V127.378H151.202V132.494H146.331V127.378H145.672V132.494H140.885V127.378H140.226V132.494H135.48V127.378H134.821V132.494H129.95V127.378H129.291V132.494H124.258V133.153H129.291V137.941H124.258V138.6H129.291V143.387H124.258V144.046H129.291V149.163H129.95V144.046H134.821V149.163H135.48V144.046H140.226V149.163H140.885V144.046H145.672V149.163H146.331V144.046H151.202V149.163H151.86V144.046H156.936V143.387H151.86V138.6H156.936V137.941H151.86V133.153H156.936ZM145.672 133.153V137.941H140.885V133.153H145.672ZM140.226 133.153V137.941H135.48V133.153H140.226ZM129.95 133.153H134.821V137.941H129.95V133.153ZM129.95 143.387V138.6H134.821V143.387H129.95ZM135.48 143.387V138.6H140.226V143.387H135.48ZM140.884 143.387V138.6H145.671V143.387H140.884ZM151.202 143.387H146.331V138.6H151.202V143.387ZM151.202 137.941H146.331V133.153H151.202V137.941Z" fill="#407BFF"/>
<path opacity="0.7" d="M156.936 133.153V132.494H151.86V127.378H151.202V132.494H146.331V127.378H145.672V132.494H140.885V127.378H140.226V132.494H135.48V127.378H134.821V132.494H129.95V127.378H129.291V132.494H124.258V133.153H129.291V137.941H124.258V138.6H129.291V143.387H124.258V144.046H129.291V149.163H129.95V144.046H134.821V149.163H135.48V144.046H140.226V149.163H140.885V144.046H145.672V149.163H146.331V144.046H151.202V149.163H151.86V144.046H156.936V143.387H151.86V138.6H156.936V137.941H151.86V133.153H156.936ZM145.672 133.153V137.941H140.885V133.153H145.672ZM140.226 133.153V137.941H135.48V133.153H140.226ZM129.95 133.153H134.821V137.941H129.95V133.153ZM129.95 143.387V138.6H134.821V143.387H129.95ZM135.48 143.387V138.6H140.226V143.387H135.48ZM140.884 143.387V138.6H145.671V143.387H140.884ZM151.202 143.387H146.331V138.6H151.202V143.387ZM151.202 137.941H146.331V133.153H151.202V137.941Z" fill="white"/>
<path d="M155.278 149.822H125.909C124.637 149.822 123.598 148.787 123.593 147.514L123.522 129.044C123.52 128.424 123.76 127.84 124.198 127.4C124.636 126.961 125.218 126.719 125.839 126.719H155.278C156.555 126.719 157.594 127.758 157.594 129.035V147.505C157.594 148.782 156.555 149.822 155.278 149.822ZM125.839 128.037C125.571 128.037 125.32 128.141 125.131 128.33C124.942 128.52 124.839 128.772 124.84 129.039L124.911 147.509C124.913 148.058 125.361 148.504 125.909 148.504H155.278C155.829 148.504 156.277 148.056 156.277 147.505V129.035C156.277 128.485 155.829 128.036 155.278 128.036H125.839V128.037Z" fill="#407BFF"/>
<g opacity="0.8">
<path d="M155.278 149.822H125.909C124.637 149.822 123.598 148.787 123.593 147.514L123.522 129.044C123.52 128.424 123.76 127.84 124.198 127.4C124.636 126.961 125.218 126.719 125.839 126.719H155.278C156.555 126.719 157.594 127.758 157.594 129.035V147.505C157.594 148.782 156.555 149.822 155.278 149.822ZM125.839 128.037C125.571 128.037 125.32 128.141 125.131 128.33C124.942 128.52 124.839 128.772 124.84 129.039L124.911 147.509C124.913 148.058 125.361 148.504 125.909 148.504H155.278C155.829 148.504 156.277 148.056 156.277 147.505V129.035C156.277 128.485 155.829 128.036 155.278 128.036H125.839V128.037Z" fill="white"/>
</g>
<path d="M151.531 136.772V134.049H124.859L124.87 136.772H151.531Z" fill="#407BFF"/>
<path opacity="0.6" d="M151.531 136.772V134.049H124.859L124.87 136.772H151.531Z" fill="white"/>
<path d="M146.001 128.739H124.889C124.86 128.835 124.84 128.935 124.84 129.039L124.849 131.462H146.001V128.739Z" fill="#407BFF"/>
<path opacity="0.3" d="M146.001 128.739H124.889C124.86 128.835 124.84 128.935 124.84 129.039L124.849 131.462H146.001V128.739Z" fill="white"/>
<path d="M154.301 145.078H124.901L124.911 147.509C124.911 147.611 124.931 147.708 124.961 147.801H154.302V145.078H154.301Z" fill="#407BFF"/>
<path opacity="0.2" d="M154.301 145.078H124.901L124.911 147.509C124.911 147.611 124.931 147.708 124.961 147.801H154.302V145.078H154.301Z" fill="black"/>
<path d="M140.555 142.355V139.632H124.88L124.891 142.355H140.555Z" fill="#407BFF"/>
<path d="M194.641 67.6115V66.9525H184.078V56.3893H183.419V66.9525H173.185V56.3893H172.526V66.9525H162.292V56.3893H161.633V66.9525H151.4V56.3893H150.742V66.9525H140.508V56.3893H139.849V66.9525H129.616V56.3893H128.957V66.9525H118.723V56.3893H118.064V66.9525H107.831V56.3893H107.172V66.9525H96.9378V56.3893H96.2792V66.9525H86.0455V56.3893H85.3865V66.9525H74.8232V67.6115H85.3865V77.8453H74.8232V78.5043H85.3865V88.738H74.8232V89.3966H85.3865V99.6298H74.8232V100.288H85.3865V110.522H74.8232V111.181H85.3865V121.744H86.0455V111.181H96.2792V121.744H96.9378V111.181H107.172V121.744H107.831V111.181H118.064V121.744H118.723V111.181H128.957V121.744H129.616V111.181H139.849V121.744H140.508V111.181H150.742V121.744H151.401V111.181H161.634V121.744H162.293V111.181H172.527V121.744H173.186V111.181H183.42V121.744H184.079V111.181H194.642V110.522H184.079V100.288H194.642V99.6298H184.079V89.3966H194.642V88.738H184.079V78.5043H194.642V77.8453H184.079V67.6115H194.641ZM172.527 67.6115V77.8453H162.293V67.6115H172.527ZM150.742 88.7376H140.508V78.5038H150.742V88.7376ZM151.401 78.5038H161.634V88.7376H151.401V78.5038ZM139.849 88.7376H129.616V78.5038H139.849V88.7376ZM128.957 88.7376H118.723V78.5038H128.957V88.7376ZM118.064 88.7376H107.831V78.5038H118.064V88.7376ZM107.172 88.7376H96.9382V78.5038H107.172V88.7376ZM107.172 89.3966V99.6298H96.9382V89.3966H107.172ZM107.831 89.3966H118.064V99.6298H107.831V89.3966ZM118.723 89.3966H128.957V99.6298H118.723V89.3966ZM129.616 89.3966H139.849V99.6298H129.616V89.3966ZM140.508 89.3966H150.742V99.6298H140.508V89.3966ZM151.401 89.3966H161.634V99.6298H151.401V89.3966ZM162.293 89.3966H172.527V99.6298H162.293V89.3966ZM162.293 88.7376V78.5038H172.527V88.7376H162.293ZM161.634 67.6115V77.8453H151.401V67.6115H161.634ZM150.742 67.6115V77.8453H140.508V67.6115H150.742ZM139.849 67.6115V77.8453H129.616V67.6115H139.849ZM128.957 67.6115V77.8453H118.723V67.6115H128.957ZM118.064 67.6115V77.8453H107.831V67.6115H118.064ZM107.172 67.6115V77.8453H96.9382V67.6115H107.172ZM86.046 67.6115H96.2797V77.8453H86.046V67.6115ZM86.046 78.5038H96.2797V88.7376H86.046V78.5038ZM86.046 89.3966H96.2797V99.6298H86.046V89.3966ZM86.046 110.522V100.288H96.2797V110.522H86.046ZM96.9382 110.522V100.288H107.172V110.522H96.9382ZM107.831 110.522V100.288H118.064V110.522H107.831ZM118.723 110.522V100.288H128.957V110.522H118.723ZM129.616 110.522V100.288H139.849V110.522H129.616ZM140.508 110.522V100.288H150.742V110.522H140.508ZM151.401 110.522V100.288H161.634V110.522H151.401ZM162.293 110.522V100.288H172.527V110.522H162.293ZM183.419 110.522H173.186V100.288H183.419V110.522ZM183.419 99.6298H173.186V89.3966H183.419V99.6298ZM183.419 88.7376H173.186V78.5038H183.419V88.7376ZM183.419 77.8453H173.186V67.6115H183.419V77.8453Z" fill="#407BFF"/>
<path opacity="0.7" d="M194.641 67.6115V66.9525H184.078V56.3893H183.419V66.9525H173.185V56.3893H172.526V66.9525H162.292V56.3893H161.633V66.9525H151.4V56.3893H150.742V66.9525H140.508V56.3893H139.849V66.9525H129.616V56.3893H128.957V66.9525H118.723V56.3893H118.064V66.9525H107.831V56.3893H107.172V66.9525H96.9378V56.3893H96.2792V66.9525H86.0455V56.3893H85.3865V66.9525H74.8232V67.6115H85.3865V77.8453H74.8232V78.5043H85.3865V88.738H74.8232V89.3966H85.3865V99.6298H74.8232V100.288H85.3865V110.522H74.8232V111.181H85.3865V121.744H86.0455V111.181H96.2792V121.744H96.9378V111.181H107.172V121.744H107.831V111.181H118.064V121.744H118.723V111.181H128.957V121.744H129.616V111.181H139.849V121.744H140.508V111.181H150.742V121.744H151.401V111.181H161.634V121.744H162.293V111.181H172.527V121.744H173.186V111.181H183.42V121.744H184.079V111.181H194.642V110.522H184.079V100.288H194.642V99.6298H184.079V89.3966H194.642V88.738H184.079V78.5043H194.642V77.8453H184.079V67.6115H194.641ZM172.527 67.6115V77.8453H162.293V67.6115H172.527ZM150.742 88.7376H140.508V78.5038H150.742V88.7376ZM151.401 78.5038H161.634V88.7376H151.401V78.5038ZM139.849 88.7376H129.616V78.5038H139.849V88.7376ZM128.957 88.7376H118.723V78.5038H128.957V88.7376ZM118.064 88.7376H107.831V78.5038H118.064V88.7376ZM107.172 88.7376H96.9382V78.5038H107.172V88.7376ZM107.172 89.3966V99.6298H96.9382V89.3966H107.172ZM107.831 89.3966H118.064V99.6298H107.831V89.3966ZM118.723 89.3966H128.957V99.6298H118.723V89.3966ZM129.616 89.3966H139.849V99.6298H129.616V89.3966ZM140.508 89.3966H150.742V99.6298H140.508V89.3966ZM151.401 89.3966H161.634V99.6298H151.401V89.3966ZM162.293 89.3966H172.527V99.6298H162.293V89.3966ZM162.293 88.7376V78.5038H172.527V88.7376H162.293ZM161.634 67.6115V77.8453H151.401V67.6115H161.634ZM150.742 67.6115V77.8453H140.508V67.6115H150.742ZM139.849 67.6115V77.8453H129.616V67.6115H139.849ZM128.957 67.6115V77.8453H118.723V67.6115H128.957ZM118.064 67.6115V77.8453H107.831V67.6115H118.064ZM107.172 67.6115V77.8453H96.9382V67.6115H107.172ZM86.046 67.6115H96.2797V77.8453H86.046V67.6115ZM86.046 78.5038H96.2797V88.7376H86.046V78.5038ZM86.046 89.3966H96.2797V99.6298H86.046V89.3966ZM86.046 110.522V100.288H96.2797V110.522H86.046ZM96.9382 110.522V100.288H107.172V110.522H96.9382ZM107.831 110.522V100.288H118.064V110.522H107.831ZM118.723 110.522V100.288H128.957V110.522H118.723ZM129.616 110.522V100.288H139.849V110.522H129.616ZM140.508 110.522V100.288H150.742V110.522H140.508ZM151.401 110.522V100.288H161.634V110.522H151.401ZM162.293 110.522V100.288H172.527V110.522H162.293ZM183.419 110.522H173.186V100.288H183.419V110.522ZM183.419 99.6298H173.186V89.3966H183.419V99.6298ZM183.419 88.7376H173.186V78.5038H183.419V88.7376ZM183.419 77.8453H173.186V67.6115H183.419V77.8453Z" fill="white"/>
<path d="M192.924 122.403H76.5412C75.9066 122.403 75.3095 122.156 74.8611 121.707C74.4123 121.258 74.165 120.661 74.165 120.027V58.1069C74.165 56.7965 75.2309 55.7307 76.5412 55.7307H192.924C194.234 55.7307 195.3 56.797 195.3 58.1069V120.027C195.3 121.337 194.234 122.403 192.924 122.403ZM76.5412 57.0483C75.9572 57.0483 75.4826 57.5229 75.4826 58.1069V120.027C75.4826 120.31 75.5929 120.576 75.7927 120.775C75.9925 120.976 76.2587 121.085 76.5412 121.085H192.924C193.507 121.085 193.982 120.611 193.982 120.027V58.1069C193.982 57.5229 193.507 57.0483 192.924 57.0483H76.5412Z" fill="#407BFF"/>
<g opacity="0.8">
<path d="M192.924 122.403H76.5412C75.9066 122.403 75.3095 122.156 74.8611 121.707C74.4123 121.258 74.165 120.661 74.165 120.027V58.1069C74.165 56.7965 75.2309 55.7307 76.5412 55.7307H192.924C194.234 55.7307 195.3 56.797 195.3 58.1069V120.027C195.3 121.337 194.234 122.403 192.924 122.403ZM76.5412 57.0483C75.9572 57.0483 75.4826 57.5229 75.4826 58.1069V120.027C75.4826 120.31 75.5929 120.576 75.7927 120.775C75.9925 120.976 76.2587 121.085 76.5412 121.085H192.924C193.507 121.085 193.982 120.611 193.982 120.027V58.1069C193.982 57.5229 193.507 57.0483 192.924 57.0483H76.5412Z" fill="white"/>
</g>
<path d="M105.323 92.3346H98.7874V121.085H105.323V92.3346Z" fill="#407BFF"/>
<path d="M116.215 82.5316H109.679V121.086H116.215V82.5316Z" fill="#407BFF"/>
<path opacity="0.6" d="M116.215 82.5316H109.679V121.086H116.215V82.5316Z" fill="white"/>
<path d="M127.108 92.3346H120.572V121.085H127.108V92.3346Z" fill="#407BFF"/>
<path opacity="0.3" d="M127.108 92.3346H120.572V121.085H127.108V92.3346Z" fill="white"/>
<path d="M83.5377 102.138H77.0022V121.085H83.5377V102.138Z" fill="#407BFF"/>
<path opacity="0.6" d="M83.5377 102.138H77.0022V121.085H83.5377V102.138Z" fill="white"/>
<path d="M94.43 97.4046H87.8945V121.085H94.43V97.4046Z" fill="#407BFF"/>
<path opacity="0.3" d="M94.43 97.4046H87.8945V121.085H94.43V97.4046Z" fill="white"/>
<path d="M138 102.138H131.465V121.085H138V102.138Z" fill="#407BFF"/>
<path d="M192.463 72.7282H185.927V121.085H192.463V72.7282Z" fill="#407BFF"/>
<path opacity="0.3" d="M192.463 72.7282H185.927V121.085H192.463V72.7282Z" fill="white"/>
<path d="M148.893 92.3346H142.357V121.085H148.893V92.3346Z" fill="#407BFF"/>
<path opacity="0.6" d="M148.893 92.3346H142.357V121.085H148.893V92.3346Z" fill="white"/>
<path d="M181.57 82.5316H175.035V121.086H181.57V82.5316Z" fill="#407BFF"/>
<path opacity="0.6" d="M181.57 82.5316H175.035V121.086H181.57V82.5316Z" fill="white"/>
<path d="M170.678 87.6012H164.142V121.085H170.678V87.6012Z" fill="#407BFF"/>
<path d="M159.785 97.4046H153.25V121.085H159.785V97.4046Z" fill="#407BFF"/>
<path opacity="0.3" d="M159.785 97.4046H153.25V121.085H159.785V97.4046Z" fill="white"/>
<path d="M179.327 127.399V130.129C181.087 130.27 182.69 130.968 183.959 132.048L185.889 130.118C184.12 128.55 181.839 127.549 179.327 127.399Z" fill="#407BFF"/>
<path opacity="0.3" d="M179.327 127.399V130.129C181.087 130.27 182.69 130.968 183.959 132.048L185.889 130.118C184.12 128.55 181.839 127.549 179.327 127.399Z" fill="white"/>
<path d="M178.009 146.411C174.024 146.093 170.846 142.915 170.527 138.929H167.797C168.125 144.419 172.519 148.813 178.009 149.141V146.411Z" fill="#407BFF"/>
<path opacity="0.7" d="M178.009 146.411C174.024 146.093 170.846 142.915 170.527 138.929H167.797C168.125 144.419 172.519 148.813 178.009 149.141V146.411Z" fill="white"/>
<path d="M170.527 137.611C170.846 133.626 174.023 130.448 178.009 130.13V127.4C172.519 127.728 168.125 132.121 167.797 137.612L170.527 137.611Z" fill="#407BFF"/>
<path opacity="0.2" d="M170.527 137.611C170.846 133.626 174.023 130.448 178.009 130.13V127.4C172.519 127.728 168.125 132.121 167.797 137.612L170.527 137.611Z" fill="black"/>
<path d="M186.82 131.05L184.89 132.98C186.103 134.405 186.837 136.252 186.837 138.27C186.837 142.56 183.53 146.075 179.327 146.411V149.141C185.036 148.8 189.561 144.065 189.561 138.27C189.561 135.499 188.524 132.972 186.82 131.05Z" fill="#407BFF"/>
<path d="M113.324 133.153V132.494H108.248V127.378H107.589V132.494H102.719V127.378H102.06V132.494H97.2725V127.378H96.6135V132.494H91.8675V127.378H91.2085V132.494H86.3377V127.378H85.6787V132.494H80.6453V133.153H85.6787V137.941H80.6453V138.6H85.6787V143.387H80.6453V144.046H85.6787V149.163H86.3377V144.046H91.2085V149.163H91.8675V144.046H96.6135V149.163H97.2725V144.046H102.06V149.163H102.719V144.046H107.589V149.163H108.248V144.046H113.324V143.387H108.248V138.6H113.324V137.941H108.248V133.153H113.324ZM102.06 133.153V137.941H97.273V133.153H102.06ZM96.614 133.153V137.941H91.868V133.153H96.614ZM86.3387 133.153H91.2094V137.941H86.3387V133.153ZM86.3387 143.387V138.6H91.2094V143.387H86.3387ZM91.868 143.387V138.6H96.614V143.387H91.868ZM97.273 143.387V138.6H102.06V143.387H97.273ZM107.59 143.387H102.719V138.6H107.59V143.387ZM107.59 137.941H102.719V133.153H107.59V137.941Z" fill="#407BFF"/>
<path opacity="0.7" d="M113.324 133.153V132.494H108.248V127.378H107.589V132.494H102.719V127.378H102.06V132.494H97.2725V127.378H96.6135V132.494H91.8675V127.378H91.2085V132.494H86.3377V127.378H85.6787V132.494H80.6453V133.153H85.6787V137.941H80.6453V138.6H85.6787V143.387H80.6453V144.046H85.6787V149.163H86.3377V144.046H91.2085V149.163H91.8675V144.046H96.6135V149.163H97.2725V144.046H102.06V149.163H102.719V144.046H107.589V149.163H108.248V144.046H113.324V143.387H108.248V138.6H113.324V137.941H108.248V133.153H113.324ZM102.06 133.153V137.941H97.273V133.153H102.06ZM96.614 133.153V137.941H91.868V133.153H96.614ZM86.3387 133.153H91.2094V137.941H86.3387V133.153ZM86.3387 143.387V138.6H91.2094V143.387H86.3387ZM91.868 143.387V138.6H96.614V143.387H91.868ZM97.273 143.387V138.6H102.06V143.387H97.273ZM107.59 143.387H102.719V138.6H107.59V143.387ZM107.59 137.941H102.719V133.153H107.59V137.941Z" fill="white"/>
<path d="M111.663 149.822H82.2242C80.945 149.822 79.9045 148.781 79.9045 147.502V129.039C79.9045 127.76 80.945 126.719 82.2242 126.719H111.663C112.943 126.719 113.983 127.76 113.983 129.039V147.502C113.983 148.781 112.942 149.822 111.663 149.822ZM82.2242 128.037C81.6719 128.037 81.2221 128.486 81.2221 129.039V147.502C81.2221 148.055 81.6719 148.504 82.2242 148.504H111.663C112.216 148.504 112.665 148.055 112.665 147.502V129.039C112.665 128.486 112.216 128.037 111.663 128.037H82.2242Z" fill="#407BFF"/>
<g opacity="0.8">
<path d="M111.663 149.822H82.2242C80.945 149.822 79.9045 148.781 79.9045 147.502V129.039C79.9045 127.76 80.945 126.719 82.2242 126.719H111.663C112.943 126.719 113.983 127.76 113.983 129.039V147.502C113.983 148.781 112.942 149.822 111.663 149.822ZM82.2242 128.037C81.6719 128.037 81.2221 128.486 81.2221 129.039V147.502C81.2221 148.055 81.6719 148.504 82.2242 148.504H111.663C112.216 148.504 112.665 148.055 112.665 147.502V129.039C112.665 128.486 112.216 128.037 111.663 128.037H82.2242Z" fill="white"/>
</g>
<path d="M108.306 131.728H105.359L102.411 134.676L96.8686 137.447H91.0618L85.3435 143.166H81.2222V144.154H85.7526L91.4713 138.435H97.1018L102.996 135.487L105.768 132.717H108.539L112.665 130.653V129.549L108.306 131.728Z" fill="#407BFF"/>
<g opacity="0.6">
<path d="M108.306 131.728H105.359L102.411 134.676L96.8686 137.447H91.0618L85.3435 143.166H81.2222V144.154H85.7526L91.4713 138.435H97.1018L102.996 135.487L105.768 132.717H108.539L112.665 130.653V129.549L108.306 131.728Z" fill="white"/>
</g>
<path d="M108.13 137.535L96.8686 143.166H91.1499L85.4316 146.024H81.2222V147.013H85.6649L91.3831 144.154H97.1018L108.715 138.347L112.665 134.397V132.999L108.13 137.535Z" fill="#407BFF"/>
<path d="M108.306 134.588L102.587 137.447H96.8686L91.1499 140.306H81.2222V141.294H91.3831L97.1018 138.435H102.821L108.539 135.576H112.665V134.588H108.306Z" fill="#407BFF"/>
<g opacity="0.3">
<path d="M108.306 134.588L102.587 137.447H96.8686L91.1499 140.306H81.2222V141.294H91.3831L97.1018 138.435H102.821L108.539 135.576H112.665V134.588H108.306Z" fill="white"/>
</g>
<path d="M192.072 82.5691C191.776 84.4304 191.511 87.1555 192.851 88.3457C192.851 88.3457 192.847 90.2377 187.679 92.4647C185.694 89.8228 187.071 88.5504 187.071 88.5504C189.128 87.9836 189.041 87.1451 188.632 85.7168L192.072 82.5691Z" fill="#FF8B7B"/>
<path opacity="0.2" d="M190.676 83.8374L188.655 85.7164C188.756 86.0472 188.828 86.3871 188.868 86.7307C189.659 86.5901 190.876 85.8746 191.016 85.009C191.002 84.5963 190.885 84.1936 190.676 83.8374Z" fill="black"/>
<path d="M194.38 79.3052C193.656 82.3711 193.413 83.6801 191.575 84.9972C188.808 86.9824 185.202 85.4185 184.994 82.2021C184.813 79.3038 186.032 74.7621 189.277 74.0728C191.592 73.5562 193.888 75.0135 194.404 77.3286C194.55 77.9804 194.542 78.657 194.38 79.3052Z" fill="#FF8B7B"/>
<path d="M189.303 79.2623C189.257 79.514 189.088 79.6957 188.926 79.6695C188.763 79.6433 188.662 79.411 188.703 79.1597C188.745 78.9083 188.918 78.7262 189.082 78.7524C189.244 78.7786 189.331 79.0204 189.303 79.2623Z" fill="#263238"/>
<path d="M186.455 78.7759C186.408 79.0322 186.239 79.2094 186.077 79.1832C185.914 79.1569 185.813 78.9246 185.854 78.6733C185.896 78.422 186.069 78.2398 186.233 78.2706C186.395 78.3018 186.496 78.5246 186.455 78.7759Z" fill="#263238"/>
<path d="M187.254 79.3848C186.929 79.9213 186.531 80.4108 186.073 80.8393C186.303 81.0685 186.621 81.1864 186.945 81.1634L187.254 79.3848Z" fill="#F84A35"/>
<path d="M188.147 82.386C188.021 82.3847 187.895 82.372 187.771 82.349C187.73 82.3435 187.702 82.3065 187.707 82.2658C187.707 82.2649 187.707 82.264 187.708 82.2631C187.718 82.2229 187.757 82.1971 187.798 82.2043C188.432 82.3264 189.086 82.141 189.561 81.704C189.589 81.6737 189.637 81.6719 189.667 81.6999C189.697 81.7284 189.699 81.7758 189.671 81.8061C189.262 82.1975 188.713 82.4068 188.147 82.386Z" fill="#263238"/>
<path d="M190.531 78.5024C190.475 78.5363 190.403 78.5282 190.354 78.4835C189.95 78.1987 189.445 78.0956 188.961 78.1991C188.879 78.2177 188.798 78.1671 188.779 78.0852C188.76 78.0057 188.81 77.9261 188.89 77.9076C188.891 77.9072 188.893 77.9067 188.895 77.9067C189.476 77.7779 190.083 77.9085 190.56 78.2647C190.62 78.3203 190.623 78.4138 190.567 78.4735C190.558 78.4866 190.546 78.4966 190.531 78.5024Z" fill="#263238"/>
<path d="M185.617 77.6251C185.564 77.6102 185.523 77.5691 185.509 77.5162C185.488 77.4357 185.535 77.3535 185.615 77.3313C186.085 77.1871 186.596 77.2866 186.977 77.5962C187.038 77.6468 187.046 77.7372 186.996 77.7982C186.993 77.8014 186.99 77.8041 186.988 77.8068C186.934 77.8678 186.84 77.8733 186.779 77.819L186.777 77.8177C186.472 77.5871 186.074 77.5157 185.707 77.626C185.678 77.6351 185.646 77.6346 185.617 77.6251Z" fill="#263238"/>
<path d="M172.354 98.9622L168.548 95.2707L168.312 93.4442C168.265 93.0831 168.031 92.7743 167.696 92.632L166.938 92.3106C166.727 92.2211 166.552 92.0633 166.441 91.8627L166.172 91.3763C165.863 90.8167 165.123 90.6734 164.627 91.0775C164.388 91.2723 164.25 91.5639 164.25 91.8722V94.4621C164.25 94.8138 164.43 95.141 164.728 95.329L167.056 96.7994L170.846 101.377L172.354 98.9622Z" fill="#FF8B7B"/>
<path d="M184.43 88.7561C184.43 88.7561 181.886 89.2031 177.095 98.3904L176.292 99.868C175.861 100.661 174.808 100.855 174.123 100.268L171.32 97.8657L169.548 100.491C169.548 100.491 174.142 106.397 176.767 105.938C179.392 105.479 182.608 97.7522 182.608 97.7522C182.608 97.7522 186.516 87.5872 184.43 88.7561Z" fill="#407BFF"/>
<path opacity="0.1" d="M178.819 104.426C180.819 102.051 182.608 97.7518 182.608 97.7518C182.608 97.7518 183.284 95.9921 183.924 94.0223L181.624 92.4457C181.624 92.4457 179.141 100.341 178.819 104.426Z" fill="black"/>
<path d="M187.561 176.777L187.054 182.788L183.683 182.582L183.632 176.802L187.561 176.777Z" fill="#FF8B7B"/>
<path d="M182.19 182.71C181.753 182.708 181.301 182.626 181.157 182.437C181.083 182.327 181.086 182.181 181.165 182.075C181.224 181.978 181.318 181.909 181.428 181.881C182.016 181.722 183.241 182.428 183.295 182.459C183.325 182.477 183.342 182.512 183.335 182.547C183.328 182.581 183.301 182.608 183.267 182.615C182.912 182.677 182.552 182.709 182.19 182.71ZM181.634 182.023C181.58 182.021 181.526 182.028 181.474 182.043C181.405 182.054 181.344 182.097 181.31 182.158C181.248 182.262 181.27 182.312 181.293 182.34C181.455 182.57 182.343 182.58 182.998 182.501C182.577 182.257 182.114 182.095 181.634 182.023Z" fill="#407BFF"/>
<path d="M183.254 182.613C183.243 182.616 183.23 182.615 183.22 182.61C182.8 182.421 181.957 181.655 182.034 181.26C182.043 181.164 182.115 181.049 182.345 181.026C182.513 181.009 182.68 181.062 182.808 181.171C183.255 181.541 183.345 182.49 183.349 182.535C183.352 182.565 183.337 182.594 183.312 182.61C183.294 182.618 183.273 182.619 183.254 182.613ZM182.4 181.184L182.352 181.18C182.202 181.192 182.192 181.252 182.185 181.273C182.163 181.512 182.715 182.111 183.15 182.371C183.11 181.972 182.948 181.594 182.687 181.29C182.608 181.221 182.505 181.184 182.4 181.184Z" fill="#407BFF"/>
<path d="M183.629 182.123L187.47 182.139C187.614 182.14 187.74 182.241 187.771 182.382L188.452 185.51C188.514 185.787 188.34 186.062 188.064 186.125C188.028 186.133 187.992 186.137 187.955 186.137C186.571 186.107 185.34 186.026 183.616 186.022C181.581 186.013 182.097 186.259 179.705 186.283C178.264 186.296 178.007 184.657 178.618 184.579C181.416 184.238 181.71 183.395 182.793 182.399C183.028 182.208 183.326 182.109 183.629 182.123Z" fill="#263238"/>
<path opacity="0.2" d="M187.258 180.367L183.662 180.289L183.632 176.802L187.561 176.777L187.258 180.367Z" fill="#263238"/>
<path d="M182.411 116.831C182.411 116.831 181.607 138.239 181.624 145.378C181.643 153.774 183.101 178.945 183.101 178.945H187.826C187.826 178.945 189.499 168.475 189.408 157.645C189.377 153.849 188.545 150.044 188.909 146.56C189.688 139.093 192.65 136.322 192.748 116.832L182.411 116.831Z" fill="#263238"/>
<path opacity="0.2" d="M190.459 126.866L189.036 125.084C189.036 125.084 187.945 135.074 188.864 147.087C188.876 146.91 188.89 146.734 188.908 146.559C189.425 141.606 190.902 138.717 191.867 131.644L190.459 126.866Z" fill="black"/>
<path d="M197.944 176.652L197.802 182.683L194.425 182.683L194.024 176.915L197.944 176.652Z" fill="#FF8B7B"/>
<path d="M192.803 182.71C192.365 182.708 191.914 182.626 191.77 182.437C191.695 182.327 191.698 182.181 191.778 182.075C191.837 181.978 191.931 181.909 192.041 181.881C192.629 181.722 193.854 182.428 193.908 182.459C193.938 182.477 193.955 182.512 193.948 182.547C193.941 182.581 193.914 182.608 193.88 182.615C193.524 182.677 193.164 182.709 192.803 182.71ZM192.246 182.023C192.192 182.021 192.138 182.028 192.086 182.043C192.017 182.054 191.956 182.097 191.922 182.158C191.86 182.262 191.882 182.312 191.905 182.34C192.067 182.57 192.955 182.58 193.61 182.501C193.189 182.257 192.727 182.095 192.246 182.023Z" fill="#407BFF"/>
<path d="M193.866 182.613C193.855 182.616 193.842 182.615 193.832 182.61C193.412 182.421 192.569 181.655 192.646 181.26C192.655 181.164 192.727 181.049 192.957 181.026C193.125 181.009 193.292 181.062 193.42 181.171C193.867 181.541 193.957 182.49 193.961 182.535C193.964 182.565 193.949 182.594 193.924 182.61C193.906 182.618 193.885 182.619 193.866 182.613ZM193.012 181.184L192.964 181.18C192.814 181.192 192.804 181.252 192.798 181.273C192.775 181.512 193.327 182.111 193.762 182.371C193.722 181.972 193.561 181.594 193.3 181.29C193.22 181.221 193.117 181.184 193.012 181.184Z" fill="#407BFF"/>
<path d="M194.241 182.123L198.082 182.139C198.227 182.14 198.352 182.241 198.383 182.382L199.064 185.51C199.127 185.787 198.953 186.062 198.676 186.125C198.64 186.133 198.604 186.137 198.568 186.137C197.183 186.107 195.952 186.026 194.228 186.022C192.194 186.013 192.709 186.259 190.317 186.283C188.876 186.296 188.619 184.657 189.231 184.579C192.029 184.238 192.323 183.395 193.406 182.399C193.641 182.208 193.938 182.109 194.241 182.123Z" fill="#263238"/>
<path opacity="0.2" d="M197.86 180.255L194.266 180.395L194.024 176.915L197.944 176.652L197.86 180.255Z" fill="#263238"/>
<path d="M188.514 116.831C188.514 116.831 189.9 138.733 190.352 146.034C190.86 154.262 193.535 178.945 193.535 178.945H198.358C198.358 178.945 199.193 167.901 199.063 157.777C199.008 153.48 197.651 149.436 197.57 146.297C197.466 142.229 199.839 127.588 198.38 115.721L188.514 116.831Z" fill="#263238"/>
<path d="M185.89 88.4812C183.087 88.8311 181.033 89.4657 181.164 98.9157C181.295 108.366 181.689 117.816 181.689 117.816H198.883C198.883 117.816 198.095 103.378 198.883 97.472C199.67 91.5657 199.145 88.6783 195.47 88.4812C191.796 88.2842 188.364 88.1725 185.89 88.4812Z" fill="#407BFF"/>
<path d="M186.939 87.4597V88.6625C186.939 88.6625 187.315 89.8594 190.573 89.7939C193.83 89.7283 194.093 88.2896 194.093 88.2896V87.4154C194.093 86.7858 193.52 86.3162 192.902 86.4396C191.967 86.6267 190.419 86.756 188.045 86.4703C187.456 86.3993 186.939 86.8663 186.939 87.4597Z" fill="#407BFF"/>
<path opacity="0.1" d="M170.592 101.732L172.28 98.6879L171.454 97.9796L169.816 100.823C169.997 101.043 170.264 101.361 170.592 101.732Z" fill="black"/>
<path d="M170.927 97.0453L168.859 100.392L169.549 101.803L172.042 97.7671L170.927 97.0453Z" fill="#407BFF"/>
<path opacity="0.1" d="M190.573 89.7934C187.315 89.8589 186.939 88.662 186.939 88.662V88.3782C186.939 88.3782 185.98 90.2386 188.81 90.5338C191.64 90.8289 193.512 89.472 193.905 88.6616C193.905 88.6607 193.905 88.6598 193.906 88.6589C193.59 89.091 192.754 89.7496 190.573 89.7934Z" fill="black"/>
<path opacity="0.1" d="M198.74 93.8103H196.235C196.235 93.8103 197.618 99.2578 198.565 102.467C198.61 100.546 198.707 98.7945 198.883 97.4715C199.016 96.474 199.108 95.5704 199.157 94.7433L198.74 93.8103Z" fill="black"/>
<path d="M201.114 109.153L198.899 115.354L197.127 116.603C196.88 116.777 196.734 117.06 196.734 117.361V118.41C196.734 118.505 196.719 118.6 196.69 118.691C196.527 119.202 196.831 119.745 197.353 119.873L198.603 120.179C198.964 120.268 199.344 120.132 199.566 119.834L200.487 118.603C200.607 118.443 200.672 118.248 200.672 118.048V116.24L203.477 109.977L201.114 109.153Z" fill="#FF8B7B"/>
<path d="M195.471 88.4813C195.471 88.4813 198.949 88.7439 201.114 92.3531C203.28 95.9623 205.249 103.903 204.658 107.053C204.067 110.203 203.28 111.909 203.28 111.909L200.117 110.663C200.117 110.663 201.18 108.158 200.917 105.571C200.655 102.985 195.602 92.9443 195.47 91.7628C195.34 90.5813 194.29 88.7439 195.471 88.4813Z" fill="#407BFF"/>
<path opacity="0.1" d="M200.556 109.318C200.34 110.135 200.117 110.663 200.117 110.663L203.28 111.909C203.28 111.909 203.517 111.393 203.829 110.41L200.556 109.318Z" fill="black"/>
<path d="M199.573 111.228L203.303 112.479L204.52 111.487L200.023 109.977L199.573 111.228Z" fill="#407BFF"/>
<path d="M189.001 76.0002C187.906 75.7109 185.134 74.7206 186.446 72.2594C187.759 69.7983 188.098 72.9157 189.241 73.1123C190.384 73.3094 194.387 73.1453 194.682 76.5905C194.682 76.5905 195.996 78.6905 194.092 81.5973C194.092 81.5973 192.626 81.3482 192.85 80.1342C193.074 78.9201 192.524 78.6905 192.077 78.2968C191.63 77.9031 191.959 76.5905 191.959 76.5905C191.959 76.5905 189.731 76.1927 189.001 76.0002Z" fill="#263238"/>
<path d="M194.812 81.8337C194.521 82.3548 194.036 82.7399 193.464 82.9058C192.699 83.1146 192.317 82.4303 192.531 81.7053C192.729 81.0549 193.362 80.1617 194.129 80.2585C194.683 80.3461 195.062 80.8668 194.974 81.4219C194.951 81.5693 194.895 81.7098 194.812 81.8337Z" fill="#FF8B7B"/>
<path d="M192.878 79.3463L190.79 79.0141C190.608 78.4826 189.857 78.3619 189.538 78.3108C189.206 78.2579 188.406 78.1327 188.091 78.648L187.362 78.5318C187.222 77.9442 186.423 77.8154 186.092 77.7625C185.703 77.7006 184.67 77.5361 184.528 78.4229C184.416 79.1262 184.963 79.7997 185.747 79.9244C186.531 80.0492 187.26 79.5787 187.372 78.8753C187.38 78.8261 187.383 78.7795 187.384 78.7348L188.007 78.8338C187.994 78.8767 187.982 78.9219 187.975 78.9712C187.862 79.6745 188.409 80.348 189.194 80.4727C189.977 80.5975 190.706 80.1269 190.818 79.4236C190.83 79.3499 190.831 79.2831 190.828 79.2193L192.848 79.5407C193.124 79.5845 193.377 79.7237 193.562 79.933L193.71 79.8033C193.494 79.5597 193.199 79.3974 192.878 79.3463ZM185.778 79.7301C185.102 79.6225 184.628 79.0498 184.723 78.4541C184.8 77.9686 185.2 77.8204 186.06 77.9573C186.92 78.0943 187.254 78.3596 187.178 78.8451C187.083 79.4403 186.455 79.8377 185.778 79.7301ZM189.224 80.2783C188.548 80.1708 188.074 79.5981 188.169 79.0024C188.246 78.5169 188.646 78.3687 189.506 78.5052C190.367 78.6421 190.701 78.9074 190.623 79.3929C190.529 79.9886 189.901 80.3859 189.224 80.2783Z" fill="#263238"/>
<g opacity="0.2">
<path d="M187.055 128.465L184.986 130.534C186.286 132.063 187.073 134.042 187.073 136.207C187.073 139.87 184.819 142.995 181.627 144.301C181.624 144.686 181.623 145.05 181.624 145.378C181.625 145.971 181.634 146.65 181.648 147.395C186.473 145.96 189.993 141.497 189.993 136.207C189.993 133.236 188.882 130.526 187.055 128.465Z" fill="black"/>
<path d="M194.734 80.3674C195.502 78.4392 194.919 77.0443 194.734 76.685V80.3674Z" fill="black"/>
<path d="M194.974 81.4219C195.023 81.115 194.922 80.823 194.734 80.6047V81.9449C194.759 81.9069 194.789 81.8735 194.812 81.8337C194.895 81.7098 194.951 81.5693 194.974 81.4219Z" fill="black"/>
<path d="M186.056 127.466C184.92 126.459 183.584 125.678 182.118 125.175C182.085 126.166 182.05 127.205 182.016 128.274C182.731 128.607 183.394 129.03 183.987 129.535L186.056 127.466Z" fill="black"/>
</g>
<path d="M40.2707 184.499L39.9055 190.935L43.503 191.224L44.4242 185.115L40.2707 184.499Z" fill="#FF8B7B"/>
<path d="M44.3497 191.028C44.3131 191.02 44.2846 190.992 44.2773 190.955C44.2706 190.918 44.2877 190.881 44.3198 190.862C44.3777 190.829 45.6862 190.074 46.3145 190.244C46.4316 190.274 46.5328 190.348 46.5961 190.451C46.6811 190.565 46.6842 190.721 46.6047 190.839C46.4506 191.04 45.9678 191.128 45.5005 191.13C45.1144 191.129 44.7298 191.095 44.3497 191.028ZM44.6376 190.907C45.3377 190.991 46.286 190.981 46.4596 190.735C46.4849 190.705 46.508 190.651 46.4411 190.541C46.4045 190.475 46.3398 190.429 46.2657 190.417C46.2101 190.401 46.1527 190.394 46.0953 190.396C45.5818 190.472 45.0873 190.646 44.6376 190.907Z" fill="#407BFF"/>
<path d="M44.3027 191.022C44.2755 191.005 44.2602 190.974 44.2624 190.942C44.2674 190.895 44.3637 189.88 44.8405 189.484C44.9775 189.368 45.1565 189.312 45.3355 189.33C45.5809 189.354 45.6582 189.478 45.6677 189.579C45.7495 190.002 44.8496 190.821 44.4007 191.022C44.389 191.028 44.3759 191.029 44.3637 191.026C44.3438 191.033 44.3216 191.031 44.3027 191.022ZM45.2767 189.5C45.1642 189.499 45.0548 189.539 44.9694 189.613C44.69 189.939 44.5174 190.342 44.4749 190.768C44.94 190.49 45.5294 189.85 45.5054 189.595C45.4986 189.572 45.4878 189.508 45.3278 189.495L45.2767 189.5Z" fill="#407BFF"/>
<path d="M43.9637 190.503L39.8591 190.52C39.7045 190.52 39.5707 190.628 39.5372 190.779L38.8095 194.122C38.7426 194.418 38.9288 194.712 39.2244 194.779C39.2624 194.787 39.3013 194.792 39.3402 194.792C40.8196 194.76 42.1353 194.674 43.9772 194.668C46.1513 194.66 45.6008 194.922 48.1569 194.948C49.6968 194.962 49.9717 193.21 49.3181 193.127C46.3281 192.763 46.0139 191.862 44.8564 190.797C44.6051 190.593 44.2873 190.488 43.9637 190.503Z" fill="#263238"/>
<path opacity="0.2" d="M40.0525 188.344L43.8687 188.8L44.4242 185.115L40.2708 184.499L40.0525 188.344Z" fill="#263238"/>
<path d="M47.0093 112.963C47.0093 112.963 43.278 115.431 43.0466 123.741C42.8793 129.741 43.2694 142.624 43.499 149.325C43.5813 151.723 43.3214 154.115 42.7148 156.437C41.6553 160.491 40.0141 169.489 39.5178 187.352H44.4347C44.4347 187.352 49.7565 164.33 51.2603 153.802C52.7641 143.274 55.1936 112.962 55.1936 112.962L47.0093 112.963Z" fill="#263238"/>
<path opacity="0.4" d="M54.012 126.946L50.0557 125.875C50.0557 125.875 50.429 139.467 51.9563 148.185C52.6429 142.057 53.4018 133.88 54.012 126.946Z" fill="black"/>
<path d="M55.1072 185.89L55.2586 192.335L58.8674 192.334L59.2968 186.172L55.1072 185.89Z" fill="#FF8B7B"/>
<path d="M59.451 192.261C59.4144 192.254 59.3863 192.225 59.3787 192.189C59.3719 192.152 59.3891 192.114 59.4211 192.095C59.479 192.062 60.7875 191.307 61.4158 191.477C61.5329 191.507 61.6341 191.582 61.6974 191.685C61.7819 191.799 61.7856 191.954 61.706 192.072C61.5519 192.274 61.0691 192.361 60.6018 192.363C60.2158 192.363 59.8307 192.329 59.451 192.261ZM59.7389 192.141C60.4391 192.224 61.3874 192.214 61.5609 191.969C61.5862 191.939 61.6093 191.885 61.5424 191.774C61.5058 191.708 61.4411 191.662 61.367 191.65C61.3114 191.635 61.2545 191.628 61.1966 191.629C60.6831 191.706 60.1882 191.879 59.7389 192.141Z" fill="#407BFF"/>
<path d="M59.404 192.256C59.3769 192.239 59.3615 192.208 59.3637 192.176C59.3687 192.129 59.4645 191.114 59.9419 190.718C60.0793 190.602 60.2578 190.546 60.4372 190.564C60.6827 190.588 60.76 190.711 60.7695 190.813C60.8513 191.236 59.9509 192.055 59.5025 192.256C59.4908 192.262 59.4777 192.263 59.4654 192.26C59.4447 192.266 59.423 192.265 59.404 192.256ZM60.378 190.733C60.2655 190.732 60.1561 190.772 60.0707 190.847C59.7913 191.172 59.6187 191.575 59.5762 192.001C60.0413 191.724 60.6307 191.083 60.6067 190.829C60.6 190.806 60.5891 190.741 60.4291 190.728L60.378 190.733Z" fill="#407BFF"/>
<path d="M59.065 191.736L54.9604 191.753C54.8058 191.754 54.672 191.862 54.6385 192.013L53.9108 195.355C53.8439 195.651 54.0302 195.946 54.3262 196.012C54.3642 196.021 54.4031 196.025 54.4419 196.026C55.9213 195.994 57.2371 195.907 59.079 195.902C61.2531 195.893 60.7026 196.156 63.2586 196.181C64.7986 196.195 65.073 194.443 64.4198 194.36C61.4298 193.997 61.1157 193.095 59.9581 192.03C59.7064 191.827 59.3886 191.722 59.065 191.736Z" fill="#263238"/>
<path opacity="0.2" d="M55.1976 189.74L59.0378 189.889L59.2968 186.172L55.1072 185.89L55.1976 189.74Z" fill="#263238"/>
<path d="M50.5664 115.122C50.5664 115.122 48.2232 121.194 51.0292 131.781C52.2035 136.212 54.2429 149.834 54.2429 149.834C54.6687 152.226 54.6895 154.67 54.341 157.075C54.0373 159.171 53.748 162.266 53.8059 166.257C53.9216 174.24 54.5001 188.586 54.5001 188.586H59.7063C59.7063 188.586 62.5959 161.89 62.5986 152.953C62.6013 143.232 59.4748 114.196 59.4748 114.196L50.5664 115.122Z" fill="#263238"/>
<path d="M50.4211 91.455C50.4211 91.455 52.6102 91.0988 52.3367 87.0484C52.3367 87.0484 54.316 85.9989 55.7046 87.1189C57.0931 88.2385 54.7513 91.1842 56.4571 92.2641C56.4571 92.2641 55.0767 93.3159 50.4211 91.455Z" fill="#FF8B7B"/>
<path d="M59.4784 80.9211C59.4829 80.6485 59.6307 80.4298 59.8088 80.4325C59.9869 80.4352 60.1279 80.6585 60.1234 80.931C60.1193 81.2036 59.9711 81.4224 59.7934 81.4192C59.6149 81.4169 59.4739 81.1941 59.4784 80.9211Z" fill="#263238"/>
<path d="M59.3592 81.4016L60.9027 83.2096C60.9027 83.2096 60.3124 83.7886 59.3442 83.5875L59.3592 81.4016Z" fill="#FF5652"/>
<path d="M58.3566 80.1482C58.409 80.1586 58.4628 80.1437 58.5021 80.1075C58.7833 79.8142 59.1892 79.6749 59.5914 79.7333C59.6764 79.7509 59.76 79.6976 59.7795 79.6126C59.7976 79.5267 59.7442 79.4422 59.6592 79.4209C59.1526 79.34 58.6377 79.5095 58.2788 79.8765C58.2142 79.933 58.2074 80.0311 58.2639 80.0958C58.2657 80.0976 58.2675 80.0998 58.2693 80.1016C58.2915 80.1274 58.3227 80.1441 58.3566 80.1482Z" fill="#263238"/>
<path d="M59.8567 85.48C59.5466 87.095 58.4826 88.0347 57.1587 88.3999C57.1587 88.3999 57.1587 88.3999 57.1542 88.4044C56.8351 88.4921 56.4925 88.5477 56.1499 88.5712C54.868 88.6594 53.4794 88.3122 52.3363 87.6134C50.5225 85.9288 50.4393 84.4711 50.0736 81.0468C49.9859 80.3249 50.0691 79.5891 50.3191 78.9043C51.1937 76.4608 53.8871 75.1929 56.3302 76.0675C59.755 77.3033 60.4538 82.3612 59.8567 85.48Z" fill="#FF8B7B"/>
<path opacity="0.2" d="M57.1683 88.3909C57.1683 88.3909 57.1683 88.3954 57.1593 88.3999C57.1593 88.3999 57.1593 88.3999 57.1547 88.4044C56.8356 88.4921 56.493 88.5477 56.1504 88.5712L56.3032 87.5253C56.3032 87.5253 56.6639 88.2566 57.1683 88.3909Z" fill="black"/>
<path d="M59.7432 80.4497L60.4844 80.2969C60.4844 80.2969 60.0672 80.8334 59.7432 80.4497Z" fill="#263238"/>
<path d="M55.5238 75.0478C55.5238 75.0478 59.3115 74.5081 60.3484 77.6319C61.3853 80.7557 58.615 76.7216 57.9361 76.6294C57.2567 76.5372 59.7048 79.4761 56.4567 83.1016L53.827 87.8128C53.827 87.8128 52.8109 87.5018 52.3548 88.0044C52.3548 88.0044 50.2403 87.3761 49.7391 83.102C49.2383 78.8275 50.1635 74.8553 55.5238 75.0478Z" fill="#263238"/>
<path d="M56.4573 82.5158C56.4573 82.5158 57.8766 82.0281 58.0691 82.9149C58.2621 83.8017 57.6216 82.7336 56.4573 82.5158Z" fill="#263238"/>
<path d="M52.6626 87.7178C52.6626 87.7178 50.7601 87.848 51.1073 88.6923C51.4544 89.5367 51.4797 88.0971 52.6626 87.7178Z" fill="#263238"/>
<path d="M50.3372 77.5085C50.3372 77.5085 43.9508 74.1773 43.0527 79.0891C42.1546 84.0015 45.7995 85.6391 44.0562 88.9138C42.3133 92.1886 46.6443 89.9173 47.4367 86.6954C48.229 83.4736 49.0119 81.0554 50.3372 81.0233C50.3372 81.0233 52.0755 79.3608 50.3372 77.5085Z" fill="#263238"/>
<path d="M50.3372 77.5085C50.3372 77.5085 50.0538 77.3612 49.6013 77.1749C49.9828 78.1291 50.3236 79.6325 49.717 81.2371C49.9105 81.106 50.1157 81.0287 50.3367 81.0233C50.3367 81.0233 52.0756 79.3608 50.3372 77.5085Z" fill="#407BFF"/>
<path d="M56.2457 81.8545C56.794 82.2952 57.1439 82.9357 57.2184 83.6349C57.3107 84.5633 56.4383 84.8748 55.6455 84.4892C54.9268 84.1407 54.0224 83.2376 54.2999 82.3648C54.5779 81.492 55.5691 81.3234 56.2457 81.8545Z" fill="#FF8B7B"/>
<path d="M57.0937 85.5374C57.4452 85.5374 57.7301 85.2525 57.7301 84.901C57.7301 84.5495 57.4452 84.2646 57.0937 84.2646C56.7422 84.2646 56.4573 84.5495 56.4573 84.901C56.4573 85.2525 56.7422 85.5374 57.0937 85.5374Z" fill="#407BFF"/>
<path opacity="0.7" d="M57.0937 85.5374C57.4452 85.5374 57.7301 85.2525 57.7301 84.901C57.7301 84.5495 57.4452 84.2646 57.0937 84.2646C56.7422 84.2646 56.4573 84.5495 56.4573 84.901C56.4573 85.2525 56.7422 85.5374 57.0937 85.5374Z" fill="white"/>
<path d="M47.7749 91.9169C47.7749 91.9169 43.7403 92.2152 41.5423 96.8428C39.3442 101.47 37.8399 110.147 43.0461 110.379C48.2522 110.61 47.7744 109.338 47.7744 109.338L47.7857 107.024L44.4495 106.022C43.748 105.812 43.3647 105.058 43.6079 104.367L45.3598 99.3885L47.7749 91.9169Z" fill="#407BFF"/>
<path opacity="0.1" d="M47.7749 91.9169C47.7749 91.9169 43.7403 92.2152 41.5423 96.8428C39.3442 101.47 37.8399 110.147 43.0461 110.379C48.2522 110.61 47.7744 109.338 47.7744 109.338L47.7857 107.024L44.4495 106.022C43.748 105.812 43.3647 105.058 43.6079 104.367L45.3598 99.3885L47.7749 91.9169Z" fill="black"/>
<path d="M50.3988 92.9344C50.3988 92.9344 49.1264 89.7396 50.3988 89.7975C51.6711 89.8553 56.7037 90.6653 57.9187 90.4339C59.1337 90.2025 55.8942 93.3262 55.8942 93.3262L50.3988 92.9344Z" fill="#407BFF"/>
<path d="M50.3988 92.9344C50.3988 92.9344 49.1264 89.7396 50.3988 89.7975C51.6711 89.8553 56.7037 90.6653 57.9187 90.4339C59.1337 90.2025 55.8942 93.3262 55.8942 93.3262L50.3988 92.9344Z" fill="#263238"/>
<path d="M44.5504 116.163C44.5504 116.163 45.4241 113.933 45.3324 111.419C45.1547 106.549 44.3642 98.8741 43.9719 95.8091C43.4914 92.0503 48.5994 91.2895 53.9213 91.6367C59.2431 91.9838 62.2512 91.8681 61.6726 98.1152C61.0941 104.362 59.9374 116.163 59.9374 116.163H44.5504Z" fill="#407BFF"/>
<path opacity="0.1" d="M61.5907 98.9989C61.0325 98.2286 60.5714 97.7622 60.5714 97.7622L58.5442 98.2232C58.5442 98.2232 59.1765 105.856 60.764 107.667C61.0487 104.717 61.3547 101.523 61.5907 98.9989Z" fill="black"/>
<path d="M58.3255 92.0629C58.3255 92.0629 61.4416 91.7524 62.714 94.9919C63.6365 97.3396 65.4703 102.543 66.4096 105.23C66.6333 105.869 67.5102 105.933 67.8275 105.335L69.0773 102.975C69.0773 102.975 70.9282 103.322 71.6225 104.941C72.3167 106.561 68.1516 110.965 65.9535 110.957C63.5131 110.949 60.3387 104.987 59.475 102.243C57.7226 96.6778 58.3255 92.0629 58.3255 92.0629Z" fill="#407BFF"/>
<path d="M69.0771 103.739L70.5091 101.306C70.5091 101.306 69.6986 99.7948 70.2307 98.8163C70.7627 97.8377 71.2834 98.6264 71.7937 98.3285C72.3044 98.0307 73.4597 95.9099 74.013 96.9739C74.5662 98.0379 75.2573 99.8699 72.4066 102.04L70.8639 105.91L69.0771 103.739Z" fill="#FF8B7B"/>
<path d="M69.2896 102.715C69.8379 102.818 71.2988 103.271 71.9316 105.205C71.937 105.222 71.9411 105.237 71.9442 105.255C71.9831 105.477 72.2638 107.141 71.9397 107.168C71.6052 107.196 71.1627 105.61 68.5375 104.226C68.3779 104.142 68.3165 103.943 68.41 103.788L68.9701 102.861C69.037 102.751 69.1635 102.691 69.2896 102.715Z" fill="#407BFF"/>
<path d="M69.2896 102.715C69.8379 102.818 71.2988 103.271 71.9316 105.205C71.937 105.222 71.9411 105.237 71.9442 105.255C71.9831 105.477 72.2638 107.141 71.9397 107.168C71.6052 107.196 71.1627 105.61 68.5375 104.226C68.3779 104.142 68.3165 103.943 68.41 103.788L68.9701 102.861C69.037 102.751 69.1635 102.691 69.2896 102.715Z" fill="#263238"/>
<path opacity="0.1" d="M53.9217 91.6367C51.8986 91.5047 49.9075 91.5336 48.2415 91.8256C48.6324 92.3138 49.6029 92.7961 51.8647 92.9027C55.1878 93.0596 55.6402 92.3002 56.9194 91.8541C56.0258 91.7614 55.0242 91.7085 53.9217 91.6367Z" fill="black"/>
</svg>
