<svg width="215" height="165" viewBox="0 0 215 165" fill="none" xmlns="http://www.w3.org/2000/svg">
<path d="M179.079 77.845H124.823C121.973 77.845 119.642 75.6459 119.642 72.9586V59.0385C119.642 56.3512 121.973 54.1521 124.823 54.1521H179.079C181.928 54.1521 184.26 56.3512 184.26 59.0385V72.9586C184.26 75.6459 181.929 77.845 179.079 77.845Z" fill="#9DBCFF"/>
<path d="M168.312 60.7979H125.938C125.438 60.7979 125.029 60.4119 125.029 59.9403V59.0051C125.029 58.5336 125.438 58.1476 125.938 58.1476H168.312C168.812 58.1476 169.221 58.5336 169.221 59.0051V59.9403C169.221 60.4119 168.812 60.7979 168.312 60.7979Z" fill="#9DBCFF"/>
<path d="M154.89 67.1834H125.938C125.438 67.1834 125.029 66.7974 125.029 66.3259V65.3901C125.029 64.9186 125.438 64.5326 125.938 64.5326H154.89C155.39 64.5326 155.799 64.9186 155.799 65.3901V66.3259C155.799 66.7974 155.39 67.1834 154.89 67.1834Z" fill="#9DBCFF"/>
<path d="M147.125 73.5694H125.938C125.438 73.5694 125.029 73.1834 125.029 72.7119V71.7761C125.029 71.3046 125.438 70.9186 125.938 70.9186H147.125C147.625 70.9186 148.034 71.3046 148.034 71.7761V72.7119C148.034 73.1834 147.625 73.5694 147.125 73.5694Z" fill="#9DBCFF"/>
<path d="M173.39 73.5693H152.203C151.703 73.5693 151.294 73.1833 151.294 72.7117V71.776C151.294 71.3044 151.703 70.9185 152.203 70.9185H173.39C173.89 70.9185 174.299 71.3044 174.299 71.776V72.7117C174.299 73.1833 173.89 73.5693 173.39 73.5693Z" fill="#9DBCFF"/>
<g opacity="0.5">
<path d="M168.312 60.7979H125.938C125.438 60.7979 125.029 60.4119 125.029 59.9403V59.0051C125.029 58.5336 125.438 58.1476 125.938 58.1476H168.312C168.812 58.1476 169.221 58.5336 169.221 59.0051V59.9403C169.221 60.4119 168.812 60.7979 168.312 60.7979Z" fill="white"/>
<path d="M154.89 67.1834H125.938C125.438 67.1834 125.029 66.7974 125.029 66.3259V65.3901C125.029 64.9186 125.438 64.5326 125.938 64.5326H154.89C155.39 64.5326 155.799 64.9186 155.799 65.3901V66.3259C155.799 66.7974 155.39 67.1834 154.89 67.1834Z" fill="white"/>
<path d="M147.125 73.5694H125.938C125.438 73.5694 125.029 73.1834 125.029 72.7119V71.7761C125.029 71.3046 125.438 70.9186 125.938 70.9186H147.125C147.625 70.9186 148.034 71.3046 148.034 71.7761V72.7119C148.034 73.1834 147.625 73.5694 147.125 73.5694Z" fill="white"/>
<path d="M173.39 73.5693H152.203C151.703 73.5693 151.294 73.1833 151.294 72.7117V71.776C151.294 71.3044 151.703 70.9185 152.203 70.9185H173.39C173.89 70.9185 174.299 71.3044 174.299 71.776V72.7117C174.299 73.1833 173.89 73.5693 173.39 73.5693Z" fill="white"/>
</g>
<path d="M135.619 83.3673H74.0322C69.8544 83.3673 66.436 80.1433 66.436 76.203V55.7941C66.436 51.8539 69.8544 48.6299 74.0322 48.6299H135.619C139.796 48.6299 143.215 51.8539 143.215 55.7941V76.203C143.215 80.1433 139.796 83.3673 135.619 83.3673Z" fill="#9DBCFF"/>
<path d="M137.795 58.3729H75.6681C74.9353 58.3729 74.3352 57.8075 74.3352 57.1158V55.744C74.3352 55.0529 74.9347 54.4869 75.6681 54.4869H137.795C138.528 54.4869 139.128 55.0524 139.128 55.744V57.1158C139.128 57.8075 138.528 58.3729 137.795 58.3729Z" fill="#9DBCFF"/>
<path d="M118.116 67.7358H75.6679C74.9351 67.7358 74.3351 67.1704 74.3351 66.4787V65.1069C74.3351 64.4158 74.9346 63.8499 75.6679 63.8499H118.116C118.849 63.8499 119.449 64.4153 119.449 65.1069V66.4787C119.449 67.1704 118.849 67.7358 118.116 67.7358Z" fill="#9DBCFF"/>
<path d="M106.732 77.0986H75.6679C74.9351 77.0986 74.3351 76.5332 74.3351 75.8415V74.4697C74.3351 73.7786 74.9346 73.2126 75.6679 73.2126H106.732C107.464 73.2126 108.064 73.7781 108.064 74.4697V75.8415C108.064 76.5327 107.464 77.0986 106.732 77.0986Z" fill="#9DBCFF"/>
<path d="M140.062 77.0986H114.177C113.444 77.0986 112.844 76.5332 112.844 75.8415V74.4697C112.844 73.7786 113.444 73.2126 114.177 73.2126H140.062C140.795 73.2126 141.395 73.7781 141.395 74.4697V75.8415C141.395 76.5327 140.795 77.0986 140.062 77.0986Z" fill="#9DBCFF"/>
<g opacity="0.5">
<path d="M137.795 58.3729H75.6681C74.9353 58.3729 74.3352 57.8075 74.3352 57.1158V55.744C74.3352 55.0529 74.9347 54.4869 75.6681 54.4869H137.795C138.528 54.4869 139.128 55.0524 139.128 55.744V57.1158C139.128 57.8075 138.528 58.3729 137.795 58.3729Z" fill="white"/>
<path d="M118.116 67.7358H75.6679C74.9351 67.7358 74.3351 67.1704 74.3351 66.4787V65.1069C74.3351 64.4158 74.9346 63.8499 75.6679 63.8499H118.116C118.849 63.8499 119.449 64.4153 119.449 65.1069V66.4787C119.449 67.1704 118.849 67.7358 118.116 67.7358Z" fill="white"/>
<path d="M106.732 77.0986H75.6679C74.9351 77.0986 74.3351 76.5332 74.3351 75.8415V74.4697C74.3351 73.7786 74.9346 73.2126 75.6679 73.2126H106.732C107.464 73.2126 108.064 73.7781 108.064 74.4697V75.8415C108.064 76.5327 107.464 77.0986 106.732 77.0986Z" fill="white"/>
<path d="M140.062 77.0986H114.177C113.444 77.0986 112.844 76.5332 112.844 75.8415V74.4697C112.844 73.7786 113.444 73.2126 114.177 73.2126H140.062C140.795 73.2126 141.395 73.7781 141.395 74.4697V75.8415C141.395 76.5327 140.795 77.0986 140.062 77.0986Z" fill="white"/>
</g>
<path d="M97.3303 138.265H67.668C65.7152 138.265 64.1174 136.758 64.1174 134.916V93.0129C64.1174 91.1711 65.7152 89.6642 67.668 89.6642H97.3303C99.2831 89.6642 100.881 91.1711 100.881 93.0129V134.917C100.881 136.758 99.2831 138.265 97.3303 138.265Z" fill="#9DBCFF"/>
<path opacity="0.4" d="M97.3303 138.265H67.668C65.7152 138.265 64.1174 136.758 64.1174 134.916V93.0129C64.1174 91.1711 65.7152 89.6642 67.668 89.6642H97.3303C99.2831 89.6642 100.881 91.1711 100.881 93.0129V134.917C100.881 136.758 99.2831 138.265 97.3303 138.265Z" fill="black"/>
<path d="M95.9706 96.8847H69.0293C68.6693 96.8847 68.3745 96.6067 68.3745 96.2671V95.3496C68.3745 95.0101 68.6693 94.7321 69.0293 94.7321H95.9706C96.3306 94.7321 96.6254 95.0101 96.6254 95.3496V96.2666C96.6254 96.6067 96.3306 96.8847 95.9706 96.8847Z" fill="#FAFAFA"/>
<path d="M87.39 102.072H69.0293C68.6693 102.072 68.3745 101.794 68.3745 101.455V100.538C68.3745 100.198 68.6693 99.92 69.0293 99.92H87.39C87.75 99.92 88.0448 100.198 88.0448 100.538V101.455C88.0448 101.794 87.75 102.072 87.39 102.072Z" fill="#FAFAFA"/>
<path d="M95.9706 107.26H69.0293C68.6693 107.26 68.3745 106.982 68.3745 106.642V105.725C68.3745 105.385 68.6693 105.107 69.0293 105.107H95.9706C96.3306 105.107 96.6254 105.385 96.6254 105.725V106.642C96.6254 106.982 96.3306 107.26 95.9706 107.26Z" fill="#FAFAFA"/>
<path d="M79.0374 112.447H69.0288C68.6688 112.447 68.374 112.169 68.374 111.83V110.913C68.374 110.573 68.6688 110.295 69.0288 110.295H79.0374C79.3974 110.295 79.6922 110.573 79.6922 110.913V111.83C79.6927 112.169 79.398 112.447 79.0374 112.447Z" fill="#FAFAFA"/>
<path d="M93.0493 112.447H83.0402C82.6801 112.447 82.3854 112.169 82.3854 111.83V110.913C82.3854 110.573 82.6801 110.295 83.0402 110.295H93.0487C93.4088 110.295 93.7035 110.573 93.7035 110.913V111.83C93.7041 112.169 93.4093 112.447 93.0493 112.447Z" fill="#FAFAFA"/>
<path d="M95.9706 117.635H69.0293C68.6693 117.635 68.3745 117.357 68.3745 117.017V116.1C68.3745 115.761 68.6693 115.483 69.0293 115.483H95.9706C96.3306 115.483 96.6254 115.761 96.6254 116.1V117.017C96.6254 117.357 96.3306 117.635 95.9706 117.635Z" fill="#FAFAFA"/>
<path d="M95.9706 122.822H69.0293C68.6693 122.822 68.3745 122.544 68.3745 122.205V121.288C68.3745 120.948 68.6693 120.67 69.0293 120.67H95.9706C96.3306 120.67 96.6254 120.948 96.6254 121.288V122.205C96.6254 122.544 96.3306 122.822 95.9706 122.822Z" fill="#FAFAFA"/>
<path d="M91.1923 128.01H69.0288C68.6688 128.01 68.374 127.732 68.374 127.392V126.475C68.374 126.135 68.6688 125.857 69.0288 125.857H91.1923C91.5523 125.857 91.8471 126.135 91.8471 126.475V127.392C91.8477 127.732 91.5529 128.01 91.1923 128.01Z" fill="#FAFAFA"/>
<path d="M79.3653 133.197H69.0293C68.6693 133.197 68.3745 132.919 68.3745 132.579V131.662C68.3745 131.323 68.6693 131.045 69.0293 131.045H79.3653C79.7258 131.045 80.0206 131.323 80.0206 131.662V132.579C80.0201 132.919 79.7253 133.197 79.3653 133.197Z" fill="#FAFAFA"/>
<path d="M105.353 89.3683H64.2166L82.3853 103.018L110.278 112.914V94.0127C110.278 91.4584 108.062 89.3683 105.353 89.3683Z" fill="#9DBCFF"/>
<path opacity="0.4" d="M105.353 89.3683H64.2166L82.3853 103.018L110.278 112.914V94.0127C110.278 91.4584 108.062 89.3683 105.353 89.3683Z" fill="black"/>
<path d="M103.558 99.3822H73.4535C73.0038 99.3822 72.6355 99.0353 72.6355 98.6107V97.1675C72.6355 96.7434 73.0033 96.396 73.4535 96.396H103.558C104.007 96.396 104.376 96.7429 104.376 97.1675V98.6107C104.376 99.0353 104.007 99.3822 103.558 99.3822Z" fill="#FAFAFA"/>
<path d="M147.004 123.941V96.6532C147.004 94.5704 148.811 92.8663 151.019 92.8663H201.265C203.474 92.8663 205.281 94.5704 205.281 96.6532V123.941C205.281 126.023 203.474 127.727 201.265 127.727H151.019C148.811 127.727 147.004 126.023 147.004 123.941Z" fill="#9DBCFF"/>
<path d="M156.179 115.288V88.0002C156.179 85.9175 157.986 84.2134 160.194 84.2134H210.44C212.648 84.2134 214.455 85.9175 214.455 88.0002V115.288C214.455 117.37 212.648 119.074 210.44 119.074H160.194C157.986 119.074 156.179 117.37 156.179 115.288Z" fill="#9DBCFF"/>
<path opacity="0.5" d="M156.179 115.288V88.0002C156.179 85.9175 157.986 84.2134 160.194 84.2134H210.44C212.648 84.2134 214.455 85.9175 214.455 88.0002V115.288C214.455 117.37 212.648 119.074 210.44 119.074H160.194C157.986 119.074 156.179 117.37 156.179 115.288Z" fill="white"/>
<path d="M189.363 105.941V89.1456C189.363 88.2177 190.169 87.4583 191.153 87.4583H207.569C208.553 87.4583 209.358 88.2177 209.358 89.1456V105.941C209.358 106.869 208.553 107.628 207.569 107.628H191.153C190.168 107.628 189.363 106.869 189.363 105.941Z" fill="#9DBCFF"/>
<path opacity="0.7" d="M189.363 105.941V89.1456C189.363 88.2177 190.169 87.4583 191.153 87.4583H207.569C208.553 87.4583 209.358 88.2177 209.358 89.1456V105.941C209.358 106.869 208.553 107.628 207.569 107.628H191.153C190.168 107.628 189.363 106.869 189.363 105.941Z" fill="white"/>
<path d="M170.912 114.065V101.192C170.912 100.48 171.529 99.8986 172.283 99.8986H184.867C185.621 99.8986 186.238 100.481 186.238 101.192V114.065C186.238 114.777 185.62 115.358 184.867 115.358H172.283C171.529 115.358 170.912 114.776 170.912 114.065Z" fill="#9DBCFF"/>
<path opacity="0.3" d="M170.912 114.065V101.192C170.912 100.48 171.529 99.8986 172.283 99.8986H184.867C185.621 99.8986 186.238 100.481 186.238 101.192V114.065C186.238 114.777 185.62 115.358 184.867 115.358H172.283C171.529 115.358 170.912 114.776 170.912 114.065Z" fill="white"/>
<path d="M35.3951 32.4517V25.4966C35.3951 23.3799 37.2313 21.6482 39.4755 21.6482L174.495 21.6482C176.74 21.6482 178.576 23.3799 178.576 25.4966V32.4517C178.576 34.5684 176.74 36.3001 174.495 36.3001H39.4755C37.2313 36.3001 35.3951 34.5684 35.3951 32.4517Z" fill="#9DBCFF"/>
<path opacity="0.5" d="M35.3951 32.4517V25.4966C35.3951 23.3799 37.2313 21.6482 39.4755 21.6482L174.495 21.6482C176.74 21.6482 178.576 23.3799 178.576 25.4966V32.4517C178.576 34.5684 176.74 36.3001 174.495 36.3001H39.4755C37.2313 36.3001 35.3951 34.5684 35.3951 32.4517Z" fill="white"/>
<path d="M153.031 38.7467V33.7017H114.178V38.7467H153.031Z" fill="#9DBCFF"/>
<path opacity="0.5" d="M153.031 38.7467V33.7017H114.178V38.7467H153.031Z" fill="white"/>
<path d="M49.3192 10.8035V3.84841C49.3192 1.73173 51.1553 0 53.3996 0L188.419 0C190.664 0 192.5 1.73173 192.5 3.84841V10.8035C192.5 12.9202 190.664 14.6519 188.419 14.6519L53.3991 14.6519C51.1553 14.6519 49.3192 12.9202 49.3192 10.8035Z" fill="#9DBCFF"/>
<path opacity="0.4" d="M126.793 101.958C107.772 112.372 83.3986 106.274 72.3544 88.3307C61.3106 70.3874 67.7833 47.4014 86.8039 36.9878C105.829 26.5719 130.202 32.6701 141.246 50.6134C152.29 68.556 145.817 91.5427 126.793 101.958Z" fill="#FAFAFA"/>
<path opacity="0.4" d="M107.872 31.9212L87.9862 102.583C87.4523 102.314 86.926 102.032 86.4045 101.742C83.0808 99.8807 80.027 97.5485 77.3541 94.7705L77.3519 94.7669L94.5281 33.7343C98.8994 32.3919 103.413 31.804 107.872 31.9212Z" fill="#FAFAFA"/>
<path opacity="0.4" d="M131.714 40.152L113.016 106.583C106.939 107.49 100.772 107.038 95.0015 105.347L115.417 32.8017C121.317 34.0322 126.91 36.5246 131.714 40.152Z" fill="#FAFAFA"/>
<path d="M61.7477 83.0983L61.2211 83.2576C60.3532 80.7051 59.7213 78.0773 59.3431 75.4483L59.8911 75.3785C60.2647 77.977 60.8899 80.5744 61.7477 83.0983ZM59.4639 69.5441L58.9105 69.5456C58.8893 62.4135 60.7305 55.2479 64.2338 48.8228L64.7251 49.0613C61.2623 55.4127 59.4429 62.4955 59.4639 69.5441ZM100.11 25.2479C98.0875 25.5217 96.065 25.9239 94.0976 26.4453L93.9482 25.9428C95.9382 25.416 97.9853 25.0084 100.032 24.7316L100.11 25.2479Z" fill="#9DBCFF"/>
<path opacity="0.3" d="M61.7477 83.0983L61.2211 83.2576C60.3532 80.7051 59.7213 78.0773 59.3431 75.4483L59.8911 75.3785C60.2647 77.977 60.8899 80.5744 61.7477 83.0983ZM59.4639 69.5441L58.9105 69.5456C58.8893 62.4135 60.7305 55.2479 64.2338 48.8228L64.7251 49.0613C61.2623 55.4127 59.4429 62.4955 59.4639 69.5441ZM100.11 25.2479C98.0875 25.5217 96.065 25.9239 94.0976 26.4453L93.9482 25.9428C95.9382 25.416 97.9853 25.0084 100.032 24.7316L100.11 25.2479Z" fill="black"/>
<path d="M127.806 30.9495C105.249 20.0074 77.5564 28.384 65.9548 49.6577C55.1688 69.436 62.0946 93.3938 81.2461 105.459C79.0475 108.515 76.9422 111.616 74.8766 114.736C71.9048 119.243 69.0373 123.8 66.2461 128.393C63.4755 132.997 60.7461 137.621 58.1216 142.296C56.7849 144.621 55.5177 146.981 54.2122 149.321C53.5287 150.476 53.0079 151.711 52.8238 153.109C52.7248 153.804 52.7139 154.543 52.7918 155.324C52.8808 156.111 53.0377 156.93 53.4437 157.87C54.7277 160.855 58.1633 162.591 61.5868 161.82C62.6335 161.585 63.4321 161.229 64.1623 160.839C64.8815 160.445 65.5119 160.007 66.0542 159.527C67.1529 158.573 67.915 157.455 68.514 156.259C69.7737 153.896 71.0716 151.552 72.3001 149.174C74.8055 144.441 77.206 139.658 79.566 134.855C81.9055 130.042 84.1675 125.191 86.326 120.29C87.8155 116.89 89.2665 113.472 90.6235 110.007C112.17 117.683 136.86 109.063 147.646 89.2855C159.248 68.0122 150.367 41.8936 127.806 30.9495ZM139.031 85.1067C129.875 101.896 108.024 108.502 90.2231 99.8668C72.4262 91.2339 65.4153 70.6263 74.5712 53.8375C83.7271 37.0487 105.578 30.4425 123.375 39.0754C141.175 47.7107 148.187 68.3179 139.031 85.1067Z" fill="#9DBCFF"/>
<path opacity="0.3" d="M127.806 30.9495C105.249 20.0074 77.5564 28.384 65.9548 49.6577C55.1688 69.436 62.0946 93.3938 81.2461 105.459C79.0475 108.515 76.9422 111.616 74.8766 114.736C71.9048 119.243 69.0373 123.8 66.2461 128.393C63.4755 132.997 60.7461 137.621 58.1216 142.296C56.7849 144.621 55.5177 146.981 54.2122 149.321C53.5287 150.476 53.0079 151.711 52.8238 153.109C52.7248 153.804 52.7139 154.543 52.7918 155.324C52.8808 156.111 53.0377 156.93 53.4437 157.87C54.7277 160.855 58.1633 162.591 61.5868 161.82C62.6335 161.585 63.4321 161.229 64.1623 160.839C64.8815 160.445 65.5119 160.007 66.0542 159.527C67.1529 158.573 67.915 157.455 68.514 156.259C69.7737 153.896 71.0716 151.552 72.3001 149.174C74.8055 144.441 77.206 139.658 79.566 134.855C81.9055 130.042 84.1675 125.191 86.326 120.29C87.8155 116.89 89.2665 113.472 90.6235 110.007C112.17 117.683 136.86 109.063 147.646 89.2855C159.248 68.0122 150.367 41.8936 127.806 30.9495ZM139.031 85.1067C129.875 101.896 108.024 108.502 90.2231 99.8668C72.4262 91.2339 65.4153 70.6263 74.5712 53.8375C83.7271 37.0487 105.578 30.4425 123.375 39.0754C141.175 47.7107 148.187 68.3179 139.031 85.1067Z" fill="black"/>
</svg>
